<svg width="1024" height="1044" viewBox="0 0 1024 1044" fill="none" xmlns="http://www.w3.org/2000/svg">
<g clip-path="url(#clip0_15_2292)">
<path d="M110.486 96.2988L65.8546 126.001H95.0517L52.9495 154.033H81.932L47.7617 176.834H60.1952L104.698 147.132H75.7156L117.817 119.101H88.6205L122.877 96.2988H110.486Z" fill="black"/>
<path d="M73.4 202.209C73.4 203.237 72.7146 203.923 71.6425 203.923H68.6416V197.965H71.4711C72.4999 197.965 73.0999 198.608 73.0999 199.551C73.0999 200.109 72.7999 200.494 72.3285 200.751C73.0146 200.923 73.4 201.48 73.4 202.209ZM69.3703 200.537H71.2991C71.9425 200.537 72.4139 200.151 72.4139 199.637C72.4139 198.994 72.0285 198.608 71.2565 198.608H69.413V200.537H69.3703ZM72.6712 202.209C72.6712 201.523 72.2425 201.094 71.6425 201.094H69.3703V203.366H71.5138C72.2859 203.366 72.6712 202.895 72.6712 202.209ZM77.0016 197.88C78.7164 197.88 79.8311 199.123 79.8311 200.923C79.8311 202.723 78.6737 204.009 77.0016 204.009C75.3294 204.009 74.172 202.723 74.172 200.923C74.172 199.165 75.3294 197.88 77.0016 197.88ZM77.0016 198.522C75.7155 198.522 74.9007 199.551 74.9007 200.966C74.9007 202.38 75.7155 203.452 77.0016 203.452C78.2877 203.452 79.1024 202.423 79.1024 200.966C79.1451 199.551 78.331 198.522 77.0016 198.522ZM84.8475 203.323V203.966H80.9892V198.008H81.7179V203.366H84.8475V203.323ZM89.0918 198.608H86.991V203.966H86.2623V198.608H84.1614V197.965H89.0918V198.608ZM94.0228 196.723V197.151C92.8648 197.494 91.922 199.337 91.922 200.923C91.922 202.509 92.8648 204.438 94.0228 204.78V205.209C92.5221 204.866 91.3647 202.937 91.3647 200.923C91.3647 198.908 92.5221 197.065 94.0228 196.723ZM99.2959 203.323V203.923H94.4942V203.023L98.6959 198.566H94.4942V197.965H99.2959V198.866L95.1376 203.323H99.2959ZM99.7246 204.823C100.883 204.48 101.825 202.551 101.825 200.966C101.825 199.38 100.883 197.536 99.7246 197.194V196.765C101.225 197.108 102.383 198.951 102.383 200.966C102.383 202.98 101.225 204.909 99.7246 205.251V204.823Z" fill="black"/>
<path d="M278.166 97.8858C277.952 97.3285 277.48 96.8573 276.88 96.6001C276.323 96.2575 275.723 96.2575 275.037 96.4714L245.711 108.087C245.239 108.301 244.896 108.644 244.682 109.116L224.317 152.577V152.791C224.188 152.791 224.188 152.919 224.188 152.919C222.902 155.577 224.188 158.92 227.747 162.563C234.65 169.463 248.241 175.893 257.887 176.578C258.573 176.707 259.174 176.707 259.859 176.707C263.761 176.707 266.547 175.421 267.662 173.021L267.448 172.807L267.662 172.935V172.807L288.027 129.346C288.242 128.875 288.242 128.446 288.156 127.974H288.284L278.166 97.8858ZM240.651 158.92C239.494 158.92 238.808 159.134 238.594 159.734C237.908 161.235 241.252 163.892 244.81 165.478C247.126 166.506 249.655 167.321 251.242 167.321C252.27 167.321 252.956 167.107 253.214 166.506C253.428 165.949 253.214 165.22 252.528 164.449C250.213 161.92 244.082 158.92 240.651 158.92ZM276.666 126.389C275.637 126.26 274.608 125.831 273.922 125.017L272.893 123.988L268.734 118.588C268.391 118.03 267.834 117.688 267.233 117.302C266.676 117.087 266.076 116.959 265.519 116.959H265.39L258.616 117.302L257.115 117.173C255.958 117.173 255.057 116.702 254.243 115.888L250.556 111.173L265.519 105.172C266.805 106.801 268.262 108.044 270.02 108.859C270.363 109.073 270.706 109.201 270.92 109.33C271.264 109.544 271.606 109.673 271.95 109.801C273.665 110.616 275.637 110.959 277.566 110.83L282.754 126.131L277.909 126.346H276.666V126.389ZM268.048 161.235C267.362 162.392 266.676 163.206 265.304 163.206C263.589 163.206 262.217 161.834 261.746 160.206C261.617 159.306 261.874 158.363 262.217 157.891L274.393 131.661C274.522 131.317 274.865 131.189 275.208 131.104L280.739 130.975C281.082 130.975 281.296 131.104 281.553 131.317C281.682 131.66 281.768 132.003 281.553 132.217L268.048 161.235ZM265.733 124.546C265.861 124.202 266.205 123.988 266.419 123.988H266.547C266.891 123.988 267.105 124.117 267.362 124.331L271.264 129.26C271.478 129.603 271.478 129.946 271.392 130.289L258.873 156.991C258.744 157.463 258.315 157.805 257.844 157.891C257.287 158.105 256.815 158.02 256.343 157.763L252.956 155.834C252.142 155.363 251.799 154.334 252.27 153.434L265.733 124.546ZM249.183 152.019C248.841 152.919 247.811 153.305 246.869 152.919L243.31 151.633C242.838 151.505 242.495 151.162 242.281 150.605C242.066 150.133 242.066 149.576 242.281 149.105L254.715 122.402C254.843 122.188 255.186 121.931 255.529 121.931L261.874 121.717C262.217 121.717 262.56 121.845 262.689 122.188C262.903 122.402 262.903 122.745 262.818 123.088L249.183 152.019ZM246.654 116.059C246.783 115.716 246.997 115.502 247.34 115.502H247.469C247.811 115.502 248.026 115.63 248.283 115.845L251.628 120.217C251.842 120.431 251.842 120.903 251.756 121.116L239.58 147.348C239.023 148.719 237.522 149.533 236.15 149.533C234.992 149.533 233.749 149.062 233.149 147.904C232.463 146.747 233.02 145.376 233.149 144.904L246.654 116.059ZM263.332 171.264C263.203 171.736 262.303 172.078 260.245 172.164C251.027 172.164 235.636 164.92 229.762 157.891C228.475 156.262 228.261 155.363 228.475 155.019C228.475 154.805 229.033 154.334 230.533 154.205C231.005 154.077 231.434 154.077 231.905 154.077C232.592 154.077 233.278 154.205 233.964 154.205C242.581 155.234 257.329 161.792 262.603 169.163C263.418 170.449 263.418 171.135 263.332 171.264Z" fill="black"/>
<path d="M225.988 201.566C225.988 202.938 226.888 203.409 227.788 203.409C228.603 203.409 229.332 203.023 229.332 202.295C229.332 201.609 228.689 201.438 227.574 201.18C226.588 200.966 225.431 200.666 225.431 199.552C225.431 198.695 226.16 197.837 227.574 197.837C229.075 197.837 229.846 198.78 229.846 200.023H229.118C229.118 198.995 228.646 198.438 227.617 198.438C226.631 198.438 226.16 198.995 226.16 199.509C226.16 200.152 226.802 200.323 227.788 200.538C228.774 200.752 230.061 201.095 230.061 202.295C230.061 203.324 229.075 204.01 227.746 204.01C226.331 204.01 225.259 203.195 225.259 201.566H225.988ZM232.591 200.966L231.861 201.609V203.924H231.133V197.966H231.861V200.752L234.992 197.966H235.978L233.105 200.538L236.063 203.966H235.12L232.591 200.966ZM237.478 198.609V200.58H240.737V201.18H237.478V203.324H240.908V203.966H236.749V198.009H240.908V198.652H237.478V198.609ZM246.439 198.609H244.338V203.966H243.609V198.609H241.508V197.966H246.439V198.609ZM249.44 197.88C250.941 197.88 252.012 198.909 252.098 200.409H251.369C251.283 199.252 250.555 198.48 249.44 198.48C248.239 198.48 247.339 199.466 247.339 200.966C247.339 202.423 248.239 203.409 249.44 203.409C250.555 203.409 251.283 202.681 251.369 201.609H252.098C252.012 203.023 250.983 204.01 249.44 204.01C247.81 204.01 246.61 202.767 246.61 200.966C246.61 199.123 247.81 197.88 249.44 197.88ZM258.101 197.966V203.924H257.372V201.18H253.899V203.924H253.17V197.966H253.899V200.538H257.372V197.966H258.101ZM260.287 197.966V203.924H259.601V197.966H260.287ZM266.761 197.966V203.924H265.518L262.474 198.438V203.924H261.745V197.966H262.988L266.032 203.452V197.966H266.761ZM269.291 200.709H273.406V203.924H273.064L272.849 202.209C272.549 203.28 271.692 204.01 270.662 204.01C269.162 204.01 267.919 202.723 267.919 200.966C267.919 199.166 269.205 197.837 270.834 197.837C272.334 197.837 273.364 198.78 273.449 200.152H272.678C272.592 199.123 271.863 198.438 270.748 198.438C269.547 198.438 268.605 199.466 268.605 200.923C268.605 202.381 269.591 203.366 270.834 203.366C271.906 203.366 272.72 202.509 272.72 201.224H269.291V200.709ZM279.066 196.723V197.152C277.908 197.494 276.965 199.337 276.965 200.923C276.965 202.509 277.908 204.438 279.066 204.781V205.209C277.565 204.867 276.407 202.938 276.407 200.923C276.407 198.909 277.565 197.066 279.066 196.723ZM281.595 197.88C283.053 197.88 284.039 199.08 284.039 200.966C284.039 202.852 283.053 204.052 281.595 204.052C280.138 204.052 279.109 202.852 279.109 200.966C279.109 199.037 280.138 197.88 281.595 197.88ZM281.595 198.48C280.566 198.48 279.838 199.423 279.838 200.923C279.838 202.423 280.566 203.409 281.595 203.409C282.581 203.409 283.31 202.467 283.31 200.923C283.267 199.423 282.581 198.48 281.595 198.48ZM284.082 204.823C285.239 204.481 286.183 202.552 286.183 200.966C286.183 199.38 285.239 197.537 284.082 197.195V196.766C285.583 197.109 286.74 198.951 286.74 200.966C286.74 202.981 285.583 204.909 284.082 205.252V204.823Z" fill="black"/>
<path d="M976.667 96.5564L963.678 101.743V96.5564L951.717 98.7426C947.559 97.3709 943.096 96.5564 938.47 96.5564C916.257 96.5564 898.208 114.601 898.208 136.803C898.208 159.005 916.257 177.049 938.47 177.049C960.677 177.049 978.726 159.005 978.726 136.803C978.726 132.088 977.913 127.502 976.329 123.216L976.667 123.559V96.5564ZM958.619 130.288C958.402 127.974 958.063 125.916 957.589 123.945C964.152 121.287 967.023 117.944 967.707 117.044C969.895 120.13 971.52 123.816 972.55 127.631L965.865 132.903V123.602L958.619 130.288ZM964.707 114.644C964.707 114.644 962.52 118.33 956.905 121.33C953.56 110.615 947.254 104.657 943.313 101.914C952.056 103.2 959.777 107.529 965.181 113.872L964.707 114.644ZM939.5 127.373C946.056 127.159 951.331 126.216 955.361 124.845C955.916 127.031 956.39 129.431 956.648 132.088L951.372 137.017C947.816 137.146 943.787 137.146 939.195 137.146L939.5 127.373ZM940.225 104.4C943.787 106.371 951.027 111.644 954.589 122.358C950.898 123.987 945.968 125.231 939.629 125.444L940.225 104.4ZM936.75 104.143C936.967 111.258 937.224 118.287 937.312 125.402C930.75 125.273 925.819 124.116 922.007 122.659C925.691 111.515 933.323 106.114 936.75 104.143ZM933.411 101.957C929.382 104.7 922.948 110.7 919.731 121.63C913.731 118.63 911.672 114.944 911.672 114.944L911.326 114.258C916.731 107.743 924.573 103.243 933.411 101.957ZM967.105 157.419C965.825 156.047 962.865 153.175 957.115 150.99C958.016 147.561 958.747 143.618 958.964 139.246C965.052 139.461 970.579 139.717 973.667 139.803C973.112 146.361 970.796 152.362 967.105 157.419ZM942.412 171.906C946.225 169.377 952.659 163.72 956.214 153.604C962.56 156.605 964.748 160.376 964.748 160.376C959.093 166.72 951.243 170.877 942.412 171.906ZM939.283 138.775C944.125 138.775 950.559 138.989 956.776 139.246C956.56 143.404 955.876 146.961 954.806 150.175C950.769 149.018 945.839 148.118 939.5 147.989L939.283 138.775ZM920.76 145.804C920.286 143.746 920.076 141.432 919.948 139.031C927.662 138.56 934.779 138.689 937.441 138.817C937.441 141.903 937.312 144.903 937.312 148.033C931.779 148.161 927.194 148.847 923.503 149.876L930.621 139.974L920.76 145.804ZM937.312 127.373C937.441 130.588 937.441 133.931 937.441 137.146C930.404 137.146 924.533 137.017 919.819 136.931V136.589C919.819 132.217 920.374 128.402 921.316 125.102C925.345 126.345 930.662 127.288 937.312 127.373ZM909.701 157.162C906.355 152.576 904.168 147.047 903.484 141.046C907.73 140.017 912.789 139.417 917.76 139.075C917.889 143.575 918.573 147.475 919.602 150.904C914.327 153.047 911.198 155.704 909.701 157.162ZM908.929 117.601C909.958 118.759 912.83 121.845 919.047 124.287C918.234 127.845 917.672 132.002 917.672 136.589V136.931C909.613 136.589 905.157 136.246 903.186 136.117C903.396 129.216 905.455 122.916 908.929 117.601ZM939.629 150.047C945.629 150.175 950.343 151.204 953.905 152.576C950.085 161.791 943.787 166.72 940.225 168.906L939.629 150.047ZM937.312 150.047C937.184 156.39 936.967 162.691 936.75 169.034C933.283 166.977 926.632 162.005 922.819 152.704C926.503 151.204 931.224 150.175 937.312 150.047ZM912.017 160.162C912.918 159.005 915.485 156.005 920.544 153.604C924.106 163.72 930.452 169.248 934.224 171.906C925.474 170.749 917.672 166.506 912.017 160.162Z" fill="black"/>
<path d="M902.495 201.951C902.495 202.979 901.811 203.665 900.741 203.665H897.734V197.708H900.565C901.595 197.708 902.197 198.35 902.197 199.294C902.197 199.851 901.899 200.237 901.425 200.493C902.069 200.665 902.495 201.222 902.495 201.951ZM898.466 200.279H900.396C901.039 200.279 901.513 199.893 901.513 199.379C901.513 198.736 901.127 198.35 900.355 198.35H898.506V200.279H898.466ZM901.771 201.951C901.771 201.265 901.337 200.837 900.741 200.837H898.466V203.108H900.613C901.385 203.108 901.771 202.637 901.771 201.951ZM903.565 197.708H904.297V201.522C904.338 202.508 905.069 203.151 906.01 203.151C906.958 203.151 907.642 202.508 907.642 201.522V197.708H908.367V201.565C908.367 202.894 907.297 203.794 906.01 203.794C904.683 203.794 903.565 202.937 903.565 201.565V197.708ZM914.672 203.665H913.86C913.426 202.637 913.555 201.094 912.444 201.094H910.514V203.623H909.783V197.665H912.573C913.731 197.665 914.456 198.179 914.456 199.336C914.456 200.365 913.86 200.837 913.169 200.922C914.158 201.05 914.117 202.637 914.672 203.665ZM912.485 200.537C913.386 200.537 913.684 200.108 913.684 199.422C913.684 198.736 913.386 198.308 912.485 198.308H910.473V200.493H912.485V200.537ZM920.72 197.708V203.665H919.474L916.433 198.179V203.665H915.702V197.708H916.948L919.989 203.194V197.708H920.72ZM922.908 197.708V203.665H922.217V197.708H922.908ZM929.375 197.708V203.665H928.136L925.088 198.179V203.665H924.364V197.708H925.603L928.651 203.194V197.708H929.375ZM931.908 200.451H936.026V203.665H935.681L935.464 201.951C935.166 203.022 934.306 203.751 933.283 203.751C931.78 203.751 930.533 202.465 930.533 200.708C930.533 198.908 931.82 197.579 933.452 197.579C934.949 197.579 935.979 198.522 936.067 199.893H935.335C935.254 198.865 934.522 198.179 933.412 198.179C932.206 198.179 931.265 199.208 931.265 200.665C931.265 202.122 932.254 203.108 933.493 203.108C934.563 203.108 935.383 202.251 935.383 200.965H931.949V200.451H931.908ZM940.442 200.451H944.552V203.665H944.214L943.997 201.951C943.699 203.022 942.839 203.751 941.81 203.751C940.313 203.751 939.067 202.465 939.067 200.708C939.067 198.908 940.354 197.579 941.986 197.579C943.482 197.579 944.512 198.522 944.6 199.893H943.869C943.787 198.865 943.056 198.179 941.938 198.179C940.74 198.179 939.798 199.208 939.798 200.665C939.798 202.122 940.78 203.108 942.026 203.108C943.096 203.108 943.916 202.251 943.916 200.965H940.482V200.451H940.442ZM949.659 203.065V203.708H945.799V197.751H946.53V203.108H949.659V203.065ZM952.619 197.622C954.332 197.622 955.443 198.865 955.443 200.665C955.443 202.465 954.291 203.751 952.619 203.751C950.898 203.751 949.788 202.465 949.788 200.665C949.788 198.908 950.898 197.622 952.619 197.622ZM952.619 198.222C951.332 198.222 950.512 199.251 950.512 200.665C950.512 202.08 951.332 203.151 952.619 203.151C953.905 203.151 954.718 202.122 954.718 200.665C954.718 199.294 953.905 198.222 952.619 198.222ZM961.362 201.951C961.362 202.979 960.678 203.665 959.608 203.665H956.601V197.708H959.432C960.461 197.708 961.064 198.35 961.064 199.294C961.064 199.851 960.759 200.237 960.292 200.493C960.935 200.665 961.362 201.222 961.362 201.951ZM957.332 200.279H959.262C959.906 200.279 960.373 199.893 960.373 199.379C960.373 198.736 959.987 198.35 959.222 198.35H957.373V200.279H957.332ZM960.63 201.951C960.63 201.265 960.204 200.837 959.608 200.837H957.332V203.108H959.479C960.244 203.108 960.63 202.637 960.63 201.951ZM963.163 198.35V200.322H966.421V200.922H963.163V203.065H966.59V203.708H962.432V197.751H966.59V198.393H963.163V198.35ZM972.211 196.465V196.893C971.053 197.236 970.105 199.079 970.105 200.665C970.105 202.251 971.053 204.18 972.211 204.522V204.951C970.708 204.608 969.55 202.679 969.55 200.665C969.55 198.65 970.708 196.807 972.211 196.465ZM976.884 201.908H976.065V203.708H975.34V201.908H971.866V201.308C972.381 200.836 973.884 199.422 974.914 197.751H976.065V201.308H976.884V201.908ZM975.34 201.308V198.136C974.528 199.507 973.322 200.751 972.807 201.308H975.34ZM976.925 204.565C978.083 204.222 979.024 202.294 979.024 200.708C979.024 199.122 978.083 197.279 976.925 196.936V196.507C978.429 196.85 979.587 198.694 979.587 200.708C979.587 202.722 978.429 204.651 976.925 204.994V204.565Z" fill="black"/>
<path d="M416.218 197.794C417.718 197.794 418.79 198.822 418.876 200.323H418.147C418.062 199.165 417.333 198.394 416.218 198.394C415.017 198.394 414.117 199.379 414.117 200.88C414.117 202.337 415.017 203.323 416.218 203.323C417.333 203.323 418.062 202.594 418.147 201.522H418.876C418.79 202.937 417.762 203.923 416.218 203.923C414.589 203.923 413.389 202.68 413.389 200.88C413.389 199.079 414.589 197.794 416.218 197.794ZM423.549 202.079H420.677L419.948 203.88H419.219L421.577 197.922H422.649L425.007 203.88H424.235L423.549 202.079ZM423.292 201.437L422.092 198.436L420.891 201.437H423.292ZM429.509 198.522H427.408V203.837H426.679V198.48H424.578V197.836H429.509V198.522ZM434.44 196.637V197.065C433.282 197.408 432.339 199.251 432.339 200.837C432.339 202.423 433.282 204.352 434.44 204.694V205.123C432.939 204.78 431.781 202.851 431.781 200.837C431.781 198.822 432.939 196.979 434.44 196.637ZM436.583 203.837H435.854V198.651C435.683 199.551 435.168 200.237 434.268 200.237V199.551C434.868 199.551 435.597 198.993 435.64 197.922H436.583V203.837ZM437.269 204.737C438.427 204.394 439.37 202.465 439.37 200.88C439.37 199.294 438.427 197.451 437.269 197.108V196.679C438.77 197.022 439.927 198.865 439.927 200.88C439.927 202.894 438.77 204.823 437.269 205.165V204.737Z" fill="black"/>
<path d="M446.788 137.231C446.788 135.86 445.63 134.703 444.258 134.703H442.286V132.86C442.286 131.488 441.257 130.331 439.885 130.331C438.513 130.331 437.356 131.488 437.356 132.86V134.703H435.384C434.012 134.703 432.854 135.86 432.854 137.231C432.854 138.603 434.012 139.76 435.384 139.76H437.356V141.604C437.356 142.975 438.513 144.132 439.885 144.132C441.257 144.132 442.286 142.975 442.286 141.604V139.76H444.258C445.63 139.76 446.788 138.603 446.788 137.231ZM421.363 163.334C421.363 163.334 422.864 166.677 426.637 166.677C430.453 166.677 432.039 163.334 432.039 163.334C429.295 163.119 427.323 161.148 426.637 158.148C425.994 161.148 424.579 163.119 421.363 163.334ZM425.394 155.876C425.951 156.562 426.68 156.433 426.68 156.433C426.68 156.433 427.366 156.562 427.966 155.876C428.653 155.062 428.095 155.748 430.367 153.133C432.425 150.818 430.581 148.89 428.653 148.89C428.181 148.89 427.838 149.019 427.366 149.233C427.152 149.361 426.208 149.361 425.994 149.233C425.522 149.019 425.18 148.89 424.708 148.89C422.735 148.89 420.892 150.862 422.993 153.133C425.308 155.748 424.836 155.062 425.394 155.876ZM461.408 136.203C461.408 136.203 455.877 96.7713 454.977 96.428C454.076 96.0854 426.68 116.915 426.68 116.915C426.68 116.915 399.284 96.0854 398.384 96.428C397.354 96.7713 391.952 136.203 391.952 136.203C391.738 137.36 389.894 151.375 398.169 161.62C401.727 165.991 408.887 170.148 417.248 172.677C419.992 175.421 422.779 176.578 426.68 176.578C429.767 176.578 433.368 175.421 436.112 172.677C444.387 170.148 451.547 165.991 455.105 161.62C463.466 151.375 461.622 137.36 461.408 136.203ZM411.717 133.674C411.245 133.117 410.688 132.86 410.002 132.86C409.316 132.86 408.716 133.074 408.158 133.674C407.258 134.703 407.258 136.203 408.158 137.231L414.504 143.447C414.976 143.918 415.662 144.132 416.219 144.132C416.905 144.132 417.591 143.918 418.062 143.447C418.962 142.417 418.962 140.918 418.062 139.889L411.717 133.674ZM433.797 167.706C433.326 167.834 432.897 168.177 432.511 168.52C430.881 170.363 428.609 171.178 426.637 171.178C424.665 171.178 422.478 170.363 420.635 168.52C420.421 168.177 419.949 167.834 419.477 167.706C412.231 165.648 405.886 162.305 402.671 158.619L408.202 157.119C404.771 156.433 401.084 155.147 398.984 151.375L408.759 152.276C402.542 149.061 395.853 144.561 397.612 134.789L397.44 135.26L400.527 111.129L408.244 118.244C403.399 120.902 401.47 126.859 401.47 126.859C406.058 121.244 411.717 121.116 415.833 121.244L400.998 107.572L401.342 104.229L424.922 122.53C425.394 122.873 425.951 123.087 426.637 123.087C427.194 123.087 427.923 122.873 428.352 122.53L451.933 104.229L452.276 107.572L436.97 121.244C441.129 121.116 446.617 121.244 451.332 126.859C451.332 126.859 449.36 120.859 444.558 118.244L452.747 110.658L455.963 136.76C456.435 145.29 450.346 149.275 444.558 152.276L454.334 151.375C452.276 155.191 448.46 156.433 445.116 157.119L450.518 158.49C447.388 162.305 441.043 165.648 433.797 167.706Z" fill="black"/>
<path d="M578.499 201.608C578.499 202.98 579.399 203.452 580.299 203.452C581.114 203.452 581.843 203.066 581.843 202.337C581.843 201.652 581.2 201.48 580.085 201.223C579.099 201.008 577.942 200.708 577.942 199.594C577.942 198.737 578.67 197.88 580.085 197.88C581.586 197.88 582.357 198.823 582.357 200.065H581.628C581.628 199.037 581.156 198.48 580.128 198.48C579.142 198.48 578.67 199.037 578.67 199.551C578.67 200.194 579.313 200.366 580.299 200.58C581.285 200.794 582.572 201.137 582.572 202.337C582.572 203.366 581.586 204.052 580.256 204.052C578.842 204.052 577.77 203.237 577.77 201.608H578.499ZM585.144 200.966L584.415 201.608V203.923H583.687V197.965H584.415V200.751L587.545 197.965H588.531L585.659 200.537L588.617 203.966H587.674L585.144 200.966ZM589.26 197.965H589.988V201.78C590.032 202.766 590.761 203.408 591.704 203.408C592.647 203.408 593.333 202.766 593.333 201.78V197.965H594.062V201.823C594.062 203.151 592.99 204.052 591.704 204.052C590.374 204.052 589.26 203.195 589.26 201.823V197.965ZM599.335 203.323V203.966H595.477V198.008H596.206V203.366H599.335V203.323ZM604.009 203.323V203.966H600.15V198.008H600.879V203.366H604.009V203.323ZM608.939 196.723V197.151C607.782 197.494 606.838 199.337 606.838 200.923C606.838 202.509 607.782 204.438 608.939 204.78V205.209C607.438 204.866 606.281 202.937 606.281 200.923C606.281 198.908 607.438 197.065 608.939 196.723ZM613.87 203.323V203.923H609.368V203.837C609.368 202.294 610.225 201.523 611.855 200.88C612.669 200.537 613.055 200.194 613.055 199.637C613.055 198.908 612.455 198.48 611.64 198.48C610.697 198.48 610.011 199.037 610.011 200.28H609.282C609.282 198.823 610.139 197.88 611.64 197.88C612.969 197.88 613.784 198.694 613.784 199.723C613.784 200.666 613.098 201.137 611.94 201.566C610.783 201.994 610.225 202.509 610.097 203.323H613.87ZM614.212 204.823C615.37 204.48 616.313 202.551 616.313 200.966C616.313 199.38 615.37 197.536 614.212 197.194V196.765C615.713 197.108 616.871 198.951 616.871 200.966C616.871 202.98 615.713 204.909 614.212 205.251V204.823Z" fill="black"/>
<path d="M610.912 119.658C606.882 119.658 603.537 123.001 603.537 127.115C603.537 131.145 606.882 134.488 610.912 134.488C615.071 134.488 618.372 131.145 618.372 127.115C618.372 123.001 615.071 119.658 610.912 119.658ZM599.293 133.587C599.293 133.587 598.736 132.302 597.45 132.302C596.164 132.302 595.606 133.587 595.606 133.587L591.79 140.617C591.79 140.617 589.946 143.703 592.476 145.546C592.948 145.889 593.505 146.017 594.105 146.017C595.735 146.017 597.45 144.989 597.45 144.989C597.45 144.989 599.164 146.017 600.794 146.017C601.351 146.017 601.951 145.889 602.423 145.546C604.952 143.703 603.109 140.617 603.109 140.617L599.293 133.587ZM587.674 96.2985C572.24 96.2985 561.35 108.814 561.35 124.244V133.459C561.35 145.074 567.567 154.975 577.127 159.218V166.676C577.127 172.205 581.714 176.791 587.374 176.791H607.268C612.884 176.791 617.386 172.205 617.386 166.676V159.304C627.161 155.061 633.378 145.031 633.378 133.416V124.201C633.378 108.771 622.445 96.2559 607.053 96.2559H587.674V96.2985ZM583.773 119.658C579.614 119.658 576.313 123.001 576.313 127.115C576.313 131.145 579.657 134.488 583.773 134.488C587.803 134.488 591.147 131.145 591.147 127.115C591.105 123.001 587.803 119.658 583.773 119.658ZM628.405 133.459C628.405 142.417 624.032 151.503 616.914 156.004V146.36C616.914 143.488 619.315 141.174 622.188 141.174H622.316V136.245H622.188C616.571 136.245 611.941 140.745 611.941 146.36V158.19C610.441 158.661 608.725 158.876 607.01 158.876H606.796C606.924 156.904 607.139 154.975 607.61 153.004C607.739 152.446 607.053 151.846 606.324 151.846C605.638 151.846 605.167 152.318 605.167 153.004C605.51 154.975 605.724 156.904 605.724 158.876H597.921C598.05 156.904 598.264 154.975 598.736 153.004C598.864 152.446 598.178 151.846 597.45 151.846C596.721 151.846 596.292 152.318 596.292 153.004C596.635 154.975 596.849 156.904 596.849 158.876H589.26C589.389 157.033 589.732 155.061 590.075 153.261C590.29 152.575 589.518 151.975 588.918 151.975C588.232 151.975 587.632 152.532 587.632 153.261C587.974 155.104 588.189 157.075 588.318 158.876H587.632C585.659 158.876 583.944 158.661 582.229 158.061V146.317C582.229 140.702 577.642 136.202 572.111 136.202V141.131C574.983 141.131 577.299 143.446 577.299 146.317V155.747C570.525 151.161 566.237 142.289 566.237 133.416V124.201C566.237 111.557 574.855 101.185 587.632 101.185H598.436L593.248 105.771C592.776 106.114 592.562 106.799 592.776 107.399C592.991 107.957 593.591 108.3 594.148 108.3H595.864L593.119 110.7C592.776 111.171 592.562 111.728 592.776 112.329C592.991 112.886 593.591 113.229 594.148 113.229H595.864L591.019 117.815H595.049L600.665 112.971C601.137 112.5 601.223 111.943 601.008 111.343C600.879 110.786 600.322 110.443 599.722 110.443H597.878L600.622 108.042C601.094 107.571 601.179 107.014 600.965 106.414C600.837 105.856 600.279 105.514 599.679 105.514H597.964L602.337 101.699C602.466 101.571 602.551 101.485 602.68 101.227H606.924C619.701 101.227 628.319 111.557 628.319 124.244V133.459H628.405ZM612.413 166.676C612.413 169.548 610.097 171.863 607.225 171.863H587.332C584.459 171.863 582.058 169.548 582.058 166.676V160.804C583.901 161.147 585.745 161.362 587.674 161.362H588.36C588.232 163.547 588.146 165.733 587.674 167.919C587.546 168.605 588.232 169.205 588.96 169.205C589.518 169.205 590.332 168.648 590.118 167.919C589.646 165.733 589.304 163.547 589.304 161.362H596.892C596.892 163.419 596.678 165.605 596.335 167.791C596.12 168.476 596.806 169.077 597.492 169.077C598.178 169.077 598.864 168.519 598.778 167.791C598.221 165.605 597.964 163.419 597.964 161.362H605.767C605.767 163.419 605.553 165.605 605.21 167.791C604.996 168.476 605.682 169.077 606.367 169.077C607.053 169.077 607.739 168.519 607.654 167.791C607.182 165.605 606.839 163.419 606.839 161.362H607.053C608.897 161.362 610.741 161.147 612.455 160.804V166.676H612.413Z" fill="black"/>
<path d="M752.735 198.224L751.15 204.182H750.04L748.705 198.781L747.378 204.182H746.261L744.676 198.224H745.407L746.863 203.71L748.191 198.224H749.22L750.554 203.71L752.01 198.224H752.735ZM754.327 198.224V204.182H753.636V198.224H754.327ZM760.198 203.581V204.182H755.397V203.281L759.596 198.824H755.397V198.224H760.198V199.124L756.04 203.581H760.198ZM764.912 202.424H762.04L761.316 204.224H760.584L762.941 198.267H764.011L766.375 204.224H765.603L764.912 202.424ZM764.702 201.781L763.496 198.781L762.298 201.781H764.702ZM772.118 204.224H771.305C770.872 203.196 771 201.653 769.89 201.653H767.96V204.182H767.228V198.224H770.018C771.176 198.224 771.901 198.738 771.901 199.895C771.901 200.924 771.305 201.395 770.614 201.481C771.563 201.567 771.515 203.152 772.118 204.224ZM769.89 201.052C770.79 201.052 771.088 200.624 771.088 199.938C771.088 199.253 770.79 198.824 769.89 198.824H767.872V201.01H769.89V201.052ZM775.375 198.224C777.346 198.224 778.078 199.595 778.078 201.224C778.078 202.852 777.346 204.182 775.375 204.182H773.1V198.224H775.375ZM777.346 201.267C777.346 199.938 776.92 198.867 775.077 198.867H773.872V203.581H775.118C776.96 203.581 777.346 202.553 777.346 201.267ZM783.604 196.98V197.409C782.453 197.752 781.504 199.595 781.504 201.181C781.504 202.767 782.453 204.695 783.604 205.039V205.467C782.107 205.124 780.949 203.196 780.949 201.181C780.949 199.167 782.107 197.324 783.604 196.98ZM788.324 202.51C788.324 203.624 787.464 204.31 786.096 204.31C784.681 204.31 783.692 203.453 783.692 202.167H784.423C784.423 203.067 785.067 203.667 786.049 203.667C786.95 203.667 787.593 203.196 787.593 202.467C787.593 201.738 786.821 201.353 785.71 201.353V200.796C786.692 200.796 787.336 200.495 787.336 199.852C787.336 199.167 786.74 198.738 785.92 198.738C785.067 198.738 784.505 199.295 784.505 200.152H783.78C783.78 198.952 784.633 198.138 785.968 198.138C787.207 198.138 788.067 198.824 788.067 199.81C788.067 200.41 787.593 200.838 786.821 201.052C787.762 201.267 788.324 201.738 788.324 202.51ZM788.494 205.081C789.652 204.739 790.593 202.81 790.593 201.224C790.593 199.638 789.652 197.795 788.494 197.452V197.024C789.997 197.366 791.155 199.209 791.155 201.224C791.155 203.238 789.997 205.167 788.494 205.51V205.081Z" fill="black"/>
<path d="M767.573 117.774C767.702 118.245 768.041 118.459 768.474 118.459C768.813 118.459 769.287 118.245 769.375 117.774L770.404 114.344H774.089C774.434 114.344 774.901 114.002 774.989 113.659C775.118 113.187 774.989 112.845 774.644 112.502L771.644 110.316L772.802 106.887C772.93 106.416 772.802 105.987 772.456 105.73C772.118 105.515 771.644 105.515 771.305 105.73L768.427 107.915L765.555 105.73C765.217 105.515 764.743 105.515 764.397 105.73C764.059 105.944 763.93 106.416 764.059 106.887L765.088 110.316L762.21 112.502C761.871 112.845 761.742 113.187 761.871 113.659C762 114.002 762.338 114.344 762.772 114.344H766.327L767.573 117.774ZM768.257 152.62C767.099 154.119 765.386 154.934 763.327 155.148C763.327 155.276 764.831 157.549 768.515 157.549C771.603 157.549 773.1 155.234 773.1 155.148C771 154.934 769.416 154.034 768.257 152.62ZM811.263 133.546C809.888 122.059 792.523 115.587 791.927 115.502C790.207 110.315 787.891 106.072 787.681 105.386C787.336 104.829 785.019 96.0859 776.872 96.0859H734.984C733.962 96.0859 730.745 96.9857 730.616 100.329C730.487 103.201 732.803 104.572 734.862 104.572C736.23 104.572 737.605 103.887 738.072 102.729L747.723 107.229C747.249 108.387 745.062 112.63 744.032 115.502C735.289 117.216 727.487 124.117 724.825 132.646C724.609 133.332 724.609 133.932 724.697 134.275C724.697 135.646 725.509 137.147 727.785 138.304C730.311 139.461 735.242 140.361 740.775 141.047C740.301 145.762 739.874 150.605 739.874 152.662C739.664 162.992 745.617 166.249 745.617 166.249L751.367 164.878L756.297 172.592L761.485 169.164L767.831 177.693L774.387 169.164L779.574 172.592L784.505 164.878L790.254 166.249C790.254 166.249 796.343 163.035 796.126 152.662C795.998 149.79 795.571 145.29 795.097 141.047C800.63 140.361 805.56 139.418 808.215 138.304C810.829 136.975 811.52 135.175 811.263 133.546ZM794.494 136.418C794.155 133.889 793.81 131.489 793.593 129.86C795.314 130.203 797.027 130.675 798.869 131.146C801.273 131.703 804.957 132.303 805.642 133.889C806.8 136.075 804.145 137.233 800.454 137.233C798.612 137.233 796.553 136.975 794.494 136.418ZM740.172 120.56C744.08 118.588 746.951 118.931 747.29 118.245C748.665 114.002 750.723 108.472 752.22 107.187C754.198 105.472 755.098 105.344 755.098 105.344L743.606 100.758H776.831C779.574 100.758 781.552 102.387 782.832 103.843C784.119 105.344 785.71 109.373 787.681 114.644L778.247 117.388C796.424 119.017 802.641 124.417 805.046 128.874C795.957 126.903 786.394 125.66 776.743 125.06C776.188 125.06 775.592 124.931 775.118 125.06C760.158 124.374 745.109 125.531 730.955 128.746C732.37 126.303 734.903 123.302 740.172 120.56ZM785.622 156.648C782.879 161.02 780.434 164.363 778.375 166.078L773.662 162.992L768.041 170.578L762.426 162.992L757.841 166.078L751.496 156.648L748.495 161.363C746.863 159.649 744.337 159.048 744.466 152.748C744.594 147.562 745.746 137.575 746.308 132.046L751.922 130.889C751.705 134.103 751.448 137.446 751.448 137.446L762.257 138.818C763.07 139.975 763.882 141.132 764.783 142.033C765.257 142.504 765.684 142.847 766.287 143.061L756.724 149.148C761.566 149.148 765.603 148.247 768.217 145.59V145.719C768.427 145.933 768.772 146.276 769.246 146.533C769.375 146.748 769.585 146.876 769.802 147.004C771.515 148.033 773.357 148.633 775.335 148.976C775.673 148.976 776.019 149.104 776.364 149.104C776.831 149.104 777.258 149.233 777.732 149.233H779.574L770.018 143.019C770.486 142.804 770.919 142.461 771.386 142.119C772.199 141.218 773.019 139.933 773.791 138.904L784.037 137.532L783.475 130.846L789.692 132.132C790.383 137.661 791.413 147.647 791.541 152.834C791.67 159.177 790.166 159.949 787.633 161.449L785.622 156.648ZM773.872 135.946C773.533 136.075 772.971 134.918 772.585 135.261C771.901 136.161 770.614 138.604 769.842 139.504C769.375 140.061 768.941 140.661 768.217 140.661C767.397 140.661 766.713 140.104 766.239 139.504C765.427 138.604 764.187 136.161 763.496 135.261C763.286 134.918 762.596 136.075 762.21 135.946L754.841 135.261L754.624 127.889C755.654 127.889 756.595 127.76 757.625 127.674C758.18 129.046 759.467 130.075 760.97 130.075C761.783 130.075 762.596 129.86 763.029 129.389L763.239 132.26L765.217 127.203H771.989C772.328 128.917 773.702 130.203 775.416 130.203C776.919 130.203 778.287 129.174 778.762 127.674C779.317 127.803 780.048 127.803 780.604 127.889L781.166 135.261L773.872 135.946ZM730.399 135.861C730.271 135.732 728.774 134.147 731.212 133.117C732.844 132.432 734.903 131.618 737.3 131.146C738.675 130.803 740.301 130.46 742.149 129.989C741.933 131.618 741.587 135.046 741.12 138.732C737.991 138.476 733.745 137.918 730.399 135.861Z" fill="black"/>
<path d="M747.595 503.136H746.775C746.349 502.107 746.477 500.564 745.36 500.564H743.43V503.093H742.705V497.135H745.489C746.647 497.135 747.378 497.65 747.378 498.807C747.378 499.836 746.775 500.307 746.091 500.393C747.033 500.522 747.033 502.107 747.595 503.136ZM745.407 499.964C746.308 499.964 746.606 499.536 746.606 498.85C746.606 498.164 746.308 497.735 745.407 497.735H743.389V499.921H745.407V499.964ZM751.062 497.092C752.783 497.092 753.893 498.335 753.893 500.136C753.893 501.936 752.735 503.222 751.062 503.222C749.389 503.222 748.231 501.936 748.231 500.136C748.231 498.335 749.349 497.092 751.062 497.092ZM751.062 497.692C749.776 497.692 748.963 498.721 748.963 500.136C748.963 501.55 749.776 502.622 751.062 502.622C752.349 502.622 753.169 501.593 753.169 500.136C753.169 498.721 752.349 497.692 751.062 497.692ZM757.496 497.05C758.993 497.05 760.07 498.078 760.151 499.578H759.426C759.338 498.421 758.607 497.65 757.496 497.65C756.297 497.65 755.397 498.635 755.397 500.136C755.397 501.593 756.297 502.578 757.496 502.578C758.607 502.578 759.338 501.85 759.426 500.778H760.151C760.07 502.192 759.04 503.179 757.496 503.179C755.864 503.179 754.665 501.936 754.665 500.136C754.665 498.335 755.864 497.05 757.496 497.05ZM762.725 500.136L762 500.778V503.093H761.268V497.135H762V499.921L765.129 497.135H766.111L763.239 499.707L766.199 503.136H765.257L762.725 500.136ZM771.346 497.092C773.059 497.092 774.17 498.335 774.17 500.136C774.17 501.936 773.019 503.222 771.346 503.222C769.673 503.222 768.515 501.936 768.515 500.136C768.474 498.335 769.626 497.092 771.346 497.092ZM771.346 497.692C770.059 497.692 769.24 498.721 769.24 500.136C769.24 501.55 770.059 502.622 771.346 502.622C772.633 502.622 773.445 501.593 773.445 500.136C773.445 498.721 772.633 497.692 771.346 497.692ZM780.306 497.178V503.136H779.06L776.019 497.65V503.136H775.287V497.178H776.534L779.574 502.664V497.178H780.306ZM786.178 495.893V496.321C785.02 496.664 784.078 498.507 784.078 500.092C784.078 501.679 785.02 503.607 786.178 503.95V504.379C784.674 504.036 783.523 502.107 783.523 500.092C783.523 498.078 784.674 496.278 786.178 495.893ZM788.494 503.222C787.295 503.222 786.435 502.407 786.394 501.421H787.119C787.119 502.107 787.634 502.622 788.453 502.622C789.652 502.622 790.207 501.25 790.207 499.792C790.119 500.221 789.523 501.035 788.406 501.035C787.295 501.035 786.306 500.264 786.306 499.064C786.306 497.949 787.166 497.092 788.534 497.092C789.693 497.092 790.939 497.778 790.939 499.75C790.939 501.25 790.295 503.222 788.494 503.222ZM788.534 500.522C789.435 500.522 790.119 499.878 790.119 499.107C790.119 498.335 789.435 497.692 788.582 497.692C787.722 497.692 787.078 498.293 787.078 499.15C787.078 499.964 787.722 500.522 788.534 500.522ZM791.02 503.993C792.178 503.65 793.126 501.721 793.126 500.136C793.126 498.549 792.178 496.706 791.02 496.364V495.935C792.523 496.278 793.682 498.121 793.682 500.136C793.682 502.15 792.523 504.079 791.02 504.421V503.993Z" fill="black"/>
<path d="M797.453 406.353C797.453 401.296 793.295 397.268 788.365 397.268C783.306 397.268 779.276 401.296 779.276 406.353V418.312H756.852V406.353C756.852 401.296 752.694 397.268 747.764 397.268C742.705 397.268 738.675 401.296 738.675 406.353V434.17C738.546 434.385 738.546 434.513 738.546 434.642V445.357C738.546 450.886 736.575 463.059 749.26 469.96V475.488C749.26 476.774 750.418 477.802 751.665 477.802H786.733C788.019 477.802 789.049 476.774 789.049 475.488V469.96C798.828 461.002 797.453 450.886 797.453 445.357V406.353ZM788.365 401.982C790.762 401.982 792.74 403.953 792.74 406.353V433.142C789.652 430.613 785.703 430.27 783.861 430.27V406.353C783.908 403.911 785.96 401.982 788.365 401.982ZM769.625 423.112H779.276V430.227H769.625V423.112ZM785.961 466.144C785.148 466.702 784.335 467.302 784.335 468.331V473.046H753.981L760.665 466.144H752.477C743.734 462.93 743.26 457.273 743.26 445.315V406.311C743.26 403.911 745.319 401.939 747.764 401.939C750.209 401.939 752.139 403.911 752.139 406.311V438.757C752.139 443.471 756.168 447.286 760.537 447.286C762.724 447.286 764.912 446.386 766.882 444.414L767.445 443.857C768.596 445.357 770.187 446.6 772.029 447.286C771.474 447.629 770.871 448.1 770.397 448.443C765 452.686 765.684 462.716 765.684 462.716H767.526C767.526 462.716 767.526 454.658 772.585 451.315C774.644 449.944 778.592 448.443 783.522 448.443V443.728C783.177 443.728 782.96 443.857 782.622 443.857H774.813C774.813 443.857 769.625 444.072 769.625 438.799V434.985H783.306C783.306 434.985 787.464 434.642 790.078 437.17C791.92 438.799 792.74 441.328 792.74 444.629V445.315C792.74 449.944 794.027 460.273 785.961 466.144ZM765.724 434.17C765.724 435.799 765.724 437.385 765.596 438.757C765.596 440.814 763.97 443.128 761.227 443.128C758.566 443.128 756.852 440.814 756.852 438.757C756.724 433.485 756.981 428.298 756.981 423.112H765.724V434.17Z" fill="black"/>
<path d="M65.8978 500.776C65.8978 502.148 66.7981 502.62 67.6985 502.62C68.5128 502.62 69.2422 502.234 69.2422 501.505C69.2422 500.82 68.5988 500.648 67.4841 500.391C66.498 500.176 65.3404 499.876 65.3404 498.762C65.3404 497.905 66.0693 497.048 67.4841 497.048C68.9848 497.048 69.7562 497.99 69.7562 499.233H69.0275C69.0275 498.205 68.5561 497.648 67.527 497.648C66.5409 497.648 66.0693 498.205 66.0693 498.719C66.0693 499.362 66.7124 499.534 67.6985 499.748C68.6848 499.962 69.9709 500.305 69.9709 501.505C69.9709 502.534 68.9848 503.22 67.6556 503.22C66.2408 503.22 65.1689 502.405 65.1689 500.776H65.8978ZM75.5873 498.805C75.5873 499.919 74.8153 500.605 73.9579 500.605H71.7717V503.134H71.0423V497.176H73.8292C74.7726 497.176 75.5873 497.819 75.5873 498.805ZM74.8586 498.805C74.8586 498.119 74.3866 497.734 73.7005 497.734H71.7717V500.048H73.7439C74.3866 500.048 74.8586 499.619 74.8586 498.805ZM79.7463 501.333H76.8734L76.1447 503.134H75.416L77.7742 497.176H78.8456L81.2038 503.134H80.4317L79.7463 501.333ZM79.489 500.691L78.2882 497.69L77.0881 500.691H79.489ZM86.9062 503.134H86.0915C85.6628 502.105 85.7914 500.562 84.6767 500.562H82.7472V503.091H82.0185V497.133H84.8054C85.9628 497.133 86.6915 497.648 86.6915 498.805C86.6915 499.834 86.0915 500.305 85.4054 500.391C86.3915 500.52 86.3488 502.105 86.9062 503.134ZM84.7194 499.962C85.6201 499.962 85.9201 499.534 85.9201 498.848C85.9201 498.162 85.6201 497.734 84.7194 497.734H82.7045V499.919H84.7194V499.962ZM89.3924 500.134L88.6637 500.776V503.091H87.9349V497.133H88.6637V499.919L91.7939 497.133H92.78L89.9071 499.705L92.8653 503.134H91.9219L89.3924 500.134ZM97.7957 495.891V496.319C96.6383 496.662 95.6948 498.505 95.6948 500.09C95.6948 501.677 96.6383 503.606 97.7957 503.948V504.377C96.2956 504.034 95.1375 502.105 95.1375 500.09C95.1375 498.076 96.2522 496.276 97.7957 495.891ZM102.598 500.862C102.598 502.277 101.612 503.262 100.283 503.262C98.9964 503.262 97.9243 502.319 97.9243 501.077H98.6538C98.6538 501.934 99.4251 502.662 100.325 502.662C101.226 502.662 101.912 501.934 101.912 500.905C101.912 499.962 101.311 499.277 100.497 499.277C99.7678 499.277 99.0391 499.748 98.7391 500.219H98.0104L98.6964 497.176H102.383V497.776H99.2965L98.8251 499.748C99.0824 499.277 99.8112 498.805 100.669 498.805C101.697 498.805 102.598 499.534 102.598 500.862ZM102.812 503.991C103.969 503.648 104.913 501.719 104.913 500.134C104.913 498.548 103.969 496.704 102.812 496.362V495.933C104.313 496.276 105.47 498.119 105.47 500.134C105.47 502.148 104.313 504.077 102.812 504.419V503.991Z" fill="black"/>
<path d="M60.8817 399.196L69.7564 414.154L68.0416 399.196H60.8817ZM74.2154 422.898L58.0949 410.597L64.7832 429.584L46.2617 432.328L64.7832 443.128L48.4483 473.859L70.6572 460.187V477.546L88.2778 459.93L106.328 477.76L101.14 454.529H124.378L106.199 442.914L124.035 419.341L101.011 426.112V397.953L84.5482 422.898L74.2154 397.268V422.898ZM81.7187 439.228L72.2859 439.099L78.031 443.471L70.9145 450.843L83.2188 445.786L85.963 452.215L88.8352 445.1L99.64 443.814L88.0211 438.414V429.542L81.7187 439.228ZM97.2385 431.642L112.674 427.399L100.154 443.042L109.715 450.843H95.6097L99.854 464.645L88.2352 453.587L74.7728 467.731L72.9293 451.872L59.9385 461.087L70.1851 441.414L60.0671 435.542L71.4719 433.699L67.5701 423.37L78.3744 430.613V418.998L84.4622 430.613L97.2385 412.783V431.642Z" fill="black"/>
<path d="M222.43 496.921C223.931 496.921 225.002 497.95 225.088 499.45H224.36C224.274 498.292 223.545 497.521 222.43 497.521C221.23 497.521 220.329 498.507 220.329 500.007C220.329 501.464 221.23 502.45 222.43 502.45C223.545 502.45 224.274 501.722 224.36 500.65H225.088C225.002 502.064 223.974 503.05 222.43 503.05C220.801 503.05 219.601 501.807 219.601 500.007C219.643 498.207 220.801 496.921 222.43 496.921ZM231.133 503.007H230.319C229.89 501.978 230.019 500.435 228.904 500.435H226.975V502.964H226.246V497.007H229.033C230.19 497.007 230.919 497.521 230.919 498.678C230.919 499.707 230.319 500.179 229.633 500.264C230.576 500.393 230.576 501.978 231.133 503.007ZM228.947 499.835C229.847 499.835 230.147 499.407 230.147 498.721C230.147 498.035 229.847 497.607 228.947 497.607H226.932V499.793H228.947V499.835ZM234.52 500.35V503.007H233.792V500.35L231.305 497.049H232.163L234.135 499.75L236.107 497.049H236.965L234.52 500.35ZM238.508 497.049V503.007H237.822V497.049H238.508ZM245.025 497.049V503.007H243.781L240.738 497.521V503.007H240.009V497.049H241.252L244.296 502.535V497.049H245.025ZM247.511 499.793H251.627V503.007H251.284L251.07 501.293C250.77 502.364 249.912 503.093 248.883 503.093C247.383 503.093 246.139 501.807 246.139 500.05C246.139 498.25 247.425 496.921 249.055 496.921C250.556 496.921 251.584 497.864 251.67 499.236H250.942C250.856 498.206 250.127 497.521 249.012 497.521C247.811 497.521 246.868 498.55 246.868 500.007C246.868 501.464 247.855 502.45 249.097 502.45C250.17 502.45 250.984 501.593 250.984 500.307H247.554V499.793H247.511ZM255.743 497.65V499.621H259.002V500.221H255.743V502.364H259.173V503.007H255.015V497.049H259.173V497.693H255.743V497.65ZM262.946 500.35V503.007H262.217V500.35L259.73 497.049H260.588L262.561 499.75L264.533 497.049H265.39L262.946 500.35ZM266.976 497.65V499.621H270.234V500.221H266.976V502.364H270.406V503.007H266.247V497.049H270.406V497.693H266.976V497.65ZM276.023 495.764V496.192C274.865 496.535 273.922 498.378 273.922 499.964C273.922 501.55 274.865 503.479 276.023 503.822V504.25C274.522 503.907 273.365 501.978 273.365 499.964C273.365 497.95 274.522 496.15 276.023 495.764ZM278.552 496.921C279.752 496.921 280.61 497.735 280.653 498.721H279.924C279.924 498.035 279.41 497.521 278.595 497.521C277.394 497.521 276.837 498.892 276.837 500.35C276.923 499.921 277.523 499.107 278.638 499.107C279.752 499.107 280.739 499.878 280.739 501.078C280.739 502.193 279.881 503.05 278.509 503.05C277.352 503.05 276.108 502.364 276.108 500.393C276.108 498.936 276.752 496.921 278.552 496.921ZM278.466 499.664C277.566 499.664 276.88 500.307 276.88 501.078C276.88 501.85 277.566 502.493 278.424 502.493C279.281 502.493 279.924 501.893 279.924 501.036C279.967 500.221 279.324 499.664 278.466 499.664ZM280.867 503.865C282.025 503.521 282.968 501.593 282.968 500.007C282.968 498.421 282.025 496.578 280.867 496.235V495.806C282.368 496.15 283.525 497.993 283.525 500.007C283.525 502.022 282.368 503.95 280.867 504.293V503.865Z" fill="black"/>
<path d="M287.641 430.059C287.641 430.059 282.282 421.872 273.193 415.615L278.209 406.957C279.024 405.714 278.552 404.128 277.309 403.313C276.837 403.099 276.409 402.971 275.937 402.971C275.036 402.971 274.136 403.442 273.664 404.342L268.649 412.871C264.532 410.728 259.859 409.099 254.758 408.757V400.099C254.758 398.599 253.514 397.355 252.013 397.355C250.513 397.355 249.398 398.599 249.398 400.099V408.885C244.039 409.357 239.366 410.686 235.378 412.657L230.49 404.342C230.019 403.442 229.119 402.971 228.218 402.971C227.747 402.971 227.318 403.099 226.846 403.313C225.603 404.128 225.131 405.714 225.946 406.957L230.748 415.143C220.716 421.529 216.299 430.273 216.299 430.273L215.613 431.773L216.514 433.016C216.514 433.016 221.658 440.645 229.933 446.689C235.635 450.889 242.924 454.318 250.985 454.318C276.28 454.318 287.77 432.801 287.77 432.801L288.456 431.43L287.641 430.059ZM284.941 444.16C284.941 444.16 273.536 455.647 273.536 465.547C273.536 471.934 278.681 477.034 284.941 477.034C291.329 477.034 296.431 471.891 296.431 465.547C296.431 454.875 284.941 444.16 284.941 444.16ZM250.985 448.96C239.151 448.96 228.904 440.088 221.83 431.302C223.631 428.558 228.433 421.958 236.75 417.886C235.035 420.715 234.006 424.015 234.006 427.573C234.006 437.688 242.109 445.917 252.227 445.917C262.26 445.917 270.449 437.731 270.449 427.573C270.449 425.515 270.106 423.587 269.549 421.787C269.42 423.715 267.963 425.215 266.033 425.215C264.104 425.215 262.604 423.629 262.604 421.701C262.604 419.858 264.104 418.272 266.033 418.272C267.277 418.272 268.091 418.743 268.091 418.615C275.251 422.815 280.268 428.987 282.196 431.688C279.367 435.887 269.335 448.96 250.985 448.96ZM284.941 472.191C281.425 472.191 278.467 469.234 278.467 465.591C278.467 460.79 282.24 455.346 285.069 451.575C286.098 452.817 287.213 454.318 288.156 456.032C289.957 458.861 291.457 462.161 291.457 465.591C291.414 469.234 288.585 472.191 284.941 472.191Z" fill="black"/>
<path d="M421.452 496.963V502.921H420.723V500.178H417.25V502.921H416.521V496.963H417.25V499.535H420.723V496.963H421.452ZM423.595 496.963V502.921H422.909V496.963H423.595ZM429.469 495.721V496.149C428.312 496.492 427.368 498.335 427.368 499.921C427.368 501.507 428.312 503.436 429.469 503.778V504.207C427.968 503.864 426.811 501.935 426.811 499.921C426.811 497.906 427.968 496.063 429.469 495.721ZM434.271 496.963V497.564C433.027 498.892 431.527 501.035 430.927 502.921H430.113C430.713 501.035 432.299 498.678 433.413 497.564H429.726V496.963H434.271ZM434.485 503.821C435.643 503.478 436.586 501.549 436.586 499.964C436.586 498.378 435.643 496.534 434.485 496.192V495.763C435.986 496.106 437.144 497.95 437.144 499.964C437.144 501.978 435.986 503.907 434.485 504.25V503.821Z" fill="black"/>
<path d="M418.108 454.402L421.537 457.959L435.214 437.258L418.108 454.402ZM462.525 447.029C462.182 442.658 455.965 419.084 455.494 417.456C454.207 412.87 450.778 410.898 447.305 410.898C444.646 410.898 441.903 411.927 440.187 413.984C436.843 410.641 425.568 399.283 425.568 399.283C424.282 397.997 422.352 397.439 420.38 397.439C419.008 397.439 417.636 397.783 416.478 398.34C413.949 399.626 412.663 402.369 412.92 404.683L412.234 403.997C410.948 402.712 409.49 402.283 407.99 402.283C403.616 402.283 398.772 406.526 399.243 410.898C392.898 410.426 387.967 418.699 393.241 424.914C391.612 425.128 390.154 425.942 388.868 427.099C385.652 430.443 385.781 435.715 389.082 439.058C389.082 439.058 409.79 459.888 413.22 463.317C416.307 466.403 421.752 473.646 431.055 473.646C432.77 473.646 434.614 473.432 436.586 472.832L440.273 476.389C440.745 476.861 441.302 477.075 441.903 477.075C442.46 477.075 443.06 476.861 443.403 476.518L466.169 453.759C466.984 452.859 466.984 451.444 466.041 450.673L462.525 447.029ZM441.474 463.017C441.474 463.017 436.415 468.203 436.201 468.289C434.142 469.189 432.385 469.66 430.669 469.66C426.511 469.66 423.081 466.788 418.15 461.945C417.593 461.474 416.993 460.917 416.436 460.316L392.169 436.057C390.54 434.428 390.54 431.814 392.169 430.314C392.983 429.499 394.013 429.028 395.041 429.028C396.07 429.028 397.1 429.499 397.914 430.314L414.721 447.201C415.064 447.544 415.406 447.673 415.878 447.673C417.507 447.673 419.094 445.358 417.85 444.115C417.85 444.115 400.229 426.628 395.985 422.128C394.613 420.756 394.141 418.099 396.113 416.256C397.014 415.355 398.086 414.97 399.114 414.97C400.272 414.97 401.301 415.441 401.987 416.127L423.938 438.071C424.282 438.415 424.753 438.543 425.096 438.543C426.468 438.543 427.84 436.829 426.468 435.457L404.259 413.127C403.102 411.627 402.973 409.312 404.602 407.726C405.503 406.826 406.574 406.441 407.604 406.441C408.632 406.441 409.79 406.912 410.476 407.726C411.291 408.412 413.349 410.469 432.342 429.585C432.814 430.057 433.242 430.143 433.628 430.143C435.257 430.143 436.372 427.956 435.257 426.799L417.55 409.098C415.364 406.912 416.05 403.826 418.236 402.54C418.794 402.197 419.608 401.983 420.294 401.983C421.581 401.983 422.823 402.454 423.51 403.14L438.473 418.099C438.259 419.256 438.344 420.627 438.687 421.999L441.688 432.929C438.815 436.743 438.001 439.7 438.13 443.858C438.344 450.759 444.689 456.373 444.689 456.373L446.061 455.088C446.061 455.088 440.659 449.473 441.56 443.472C442.246 438.2 446.276 434.6 446.276 434.6C446.276 434.6 443.618 424.699 442.717 420.799C442.16 418.827 443.274 416.085 446.061 415.399C446.533 415.27 446.876 415.27 447.347 415.27C449.534 415.27 451.249 416.77 451.721 418.485C453.007 422.985 455.279 431.814 456.437 436.315C456.437 436.315 458.495 443.344 458.066 446.43C457.937 447.33 457.851 448.272 458.538 448.83L461.624 452.044L441.946 471.718L441.474 463.017Z" fill="black"/>
<path d="M587.973 501.378C587.973 502.407 587.287 503.093 586.215 503.093H583.214V497.135H586.044C587.073 497.135 587.673 497.779 587.673 498.721C587.673 499.278 587.373 499.664 586.901 499.921C587.588 500.05 587.973 500.607 587.973 501.378ZM583.943 499.664H585.872C586.515 499.664 586.987 499.278 586.987 498.764C586.987 498.121 586.601 497.735 585.829 497.735H583.986V499.664H583.943ZM587.244 501.336C587.244 500.65 586.815 500.221 586.215 500.221H583.943V502.493H586.087C586.858 502.493 587.244 502.022 587.244 501.336ZM591.36 500.393V503.05H590.631V500.393L588.145 497.093H589.002L590.974 499.793L592.947 497.093H593.804L591.36 500.393ZM595.433 497.735V499.707H598.692V500.307H595.433V502.45H598.863V503.093H594.704V497.135H598.863V497.779H595.433V497.735ZM604.437 495.85V496.278C603.279 496.621 602.336 498.464 602.336 500.05C602.336 501.636 603.279 503.565 604.437 503.907V504.336C602.936 503.993 601.779 502.064 601.779 500.05C601.779 498.036 602.936 496.192 604.437 495.85ZM608.981 501.378C608.981 502.407 608.081 503.179 606.795 503.179C605.508 503.179 604.566 502.407 604.566 501.378C604.566 500.693 605.037 500.179 605.809 499.921C605.208 499.664 604.822 499.235 604.822 498.636C604.822 497.693 605.637 497.007 606.838 497.007C607.952 497.007 608.767 497.693 608.767 498.636C608.767 499.193 608.424 499.664 607.824 499.921C608.51 500.179 608.981 500.693 608.981 501.378ZM608.295 501.336C608.295 500.65 607.695 500.136 606.838 500.136C605.98 500.136 605.337 500.65 605.337 501.336C605.337 502.064 605.98 502.579 606.838 502.579C607.652 502.579 608.295 502.064 608.295 501.336ZM605.552 498.636C605.552 499.278 606.109 499.707 606.838 499.707C607.524 499.707 608.038 499.235 608.038 498.636C608.038 498.036 607.524 497.564 606.838 497.564C606.109 497.607 605.552 498.036 605.552 498.636ZM609.153 503.95C610.311 503.607 611.253 501.679 611.253 500.093C611.253 498.507 610.311 496.664 609.153 496.321V495.892C610.653 496.236 611.811 498.078 611.811 500.093C611.811 502.108 610.653 504.036 609.153 504.379V503.95Z" fill="black"/>
<path d="M598.134 402.027C598.134 398.813 596.634 397.312 594.234 397.312C591.918 397.312 590.075 398.941 590.075 402.027C590.075 405.242 594.234 410.214 594.234 410.214C594.234 410.214 598.134 405.371 598.134 402.027ZM589.174 455.261L592.733 458.818L606.538 437.773L589.174 455.261ZM634.02 446.988C633.677 442.488 627.332 418.572 626.903 416.985C625.617 412.271 622.058 410.214 618.5 410.214C615.842 410.214 613.098 411.371 611.383 413.3C608.039 409.956 603.322 404.213 603.322 404.213L596.077 416.385L581.929 402.927C580.557 402.027 579.056 401.642 577.684 401.642C573.182 401.642 569.28 405.671 569.752 410.171C563.321 409.699 557.662 417.629 563.064 423.843C561.434 424.186 559.977 424.872 558.691 426.158C555.347 429.501 555.475 434.901 558.82 438.33L584.029 463.533C587.245 466.747 592.775 473.99 602.207 473.99C603.923 473.99 605.766 473.776 607.824 473.177L611.512 476.862C611.983 477.334 612.54 477.548 613.14 477.548C613.698 477.548 614.298 477.334 614.641 476.862L637.879 453.76C638.694 452.946 638.694 451.574 637.75 450.674L634.02 446.988ZM612.626 463.189C612.626 463.189 607.567 468.376 607.224 468.462C605.166 469.49 603.322 469.962 601.607 469.962C596.891 469.962 593.075 466.404 587.116 460.403C583.901 457.317 561.906 435.201 561.906 435.201C560.277 433.573 560.277 430.958 561.906 429.33C562.721 428.515 563.75 428.043 564.779 428.043C565.808 428.043 566.965 428.515 567.78 429.33L585.487 447.031C585.83 447.374 586.173 447.502 586.644 447.502C588.145 447.502 589.86 445.317 588.616 443.945C588.616 443.945 570.652 426.115 566.279 421.614C564.907 420.243 564.565 417.457 566.408 415.614C567.308 414.714 568.38 414.328 569.409 414.328C570.567 414.328 571.725 414.8 572.411 415.486L594.748 437.816C595.091 438.159 595.562 438.373 596.034 438.373C597.534 438.373 598.778 436.53 597.406 435.159L574.725 412.485C573.697 410.857 573.439 408.585 575.197 406.87C576.011 406.056 577.041 405.585 578.07 405.585C579.227 405.585 580.385 406.142 581.071 406.87C581.971 407.685 584.072 409.871 603.408 429.201C603.88 429.672 604.308 429.758 604.694 429.758C606.324 429.758 607.439 427.572 606.324 426.329L598.949 418.958L603.88 410.771L609.496 417.457C609.367 418.743 609.496 419.986 609.839 421.486L612.84 432.63C609.968 436.444 609.025 439.53 609.153 443.688C609.496 450.717 615.927 456.46 615.927 456.46L617.213 455.089C617.213 455.089 611.812 449.474 612.712 443.345C613.398 437.945 617.557 434.387 617.557 434.387C617.557 434.387 614.898 424.272 613.87 420.372C613.398 418.314 614.427 415.657 617.342 414.843C617.814 414.714 618.243 414.629 618.629 414.629C620.815 414.629 622.53 416.257 623.002 417.971C624.374 422.557 626.689 431.558 627.932 436.144C627.932 436.144 629.904 443.259 629.433 446.388C629.304 447.288 629.304 448.232 629.99 448.917L633.077 452.131L613.055 472.147L612.626 463.189Z" fill="black"/>
<path d="M941.769 410.3L960.373 396.541V406.699L974.141 396.541V425.215C974.141 425.601 974.141 425.987 974.182 426.416C974.222 426.844 974.222 427.229 974.222 427.615C974.222 430.015 973.836 432.202 973.112 434.259C972.38 436.316 971.351 438.202 970.064 439.959L938.857 477.377L907.297 440.045C905.969 438.287 904.94 436.359 904.168 434.259C903.396 432.159 903.01 429.93 903.01 427.573C903.01 424.658 903.565 421.915 904.683 419.429C905.8 416.943 907.297 414.714 909.186 412.785C911.069 410.857 913.304 409.357 915.83 408.285C918.363 407.214 921.058 406.657 923.93 406.657C926.761 406.657 929.463 407.214 932.037 408.285C934.563 409.357 936.798 410.9 938.64 412.914C939.114 412.443 939.581 411.971 940.096 411.542C940.611 411.114 941.166 410.685 941.769 410.3ZM932.551 461.604L938.897 468.891L965.689 436.659C966.637 435.416 967.362 434.044 967.877 432.544C968.439 431.044 968.696 429.415 968.696 427.615C968.696 425.472 968.31 423.458 967.491 421.615C966.678 419.772 965.567 418.186 964.152 416.814C962.736 415.486 961.104 414.372 959.221 413.6C957.332 412.829 955.402 412.4 953.343 412.4C948.975 412.4 945.372 413.857 942.581 416.772L938.64 420.586L934.82 416.772C931.82 413.857 928.176 412.4 923.977 412.4C921.878 412.4 919.9 412.785 918.018 413.6C916.128 414.414 914.503 415.486 913.087 416.814C911.712 418.143 910.602 419.772 909.87 421.615C909.098 423.458 908.712 425.472 908.712 427.615C908.712 429.373 908.97 431.044 909.484 432.544C909.999 434.044 910.642 435.416 911.502 436.659L916.69 442.788L925.474 435.845V445.788L932.511 442.188V461.604H932.551ZM942.5 432.03L935.809 445.189L935.254 437.216L942.5 432.03Z" fill="black"/>
<path d="M905.624 497.863V503.821H904.899V501.035H901.425V503.821H900.693V497.863H901.425V500.435H904.899V497.863H905.624Z" fill="black"/>
<path d="M907.811 498.506V500.477H911.069V501.078H907.811V503.221H911.285V503.863H907.127V497.863H911.285V498.506H907.811Z" fill="black"/>
<path d="M916.128 502.064H913.257L912.532 503.864H911.801L914.158 497.906H915.228L917.591 503.864H916.819L916.128 502.064ZM915.871 501.421L914.672 498.421L913.474 501.421H915.871Z" fill="black"/>
<path d="M923.293 503.821H922.433C922.006 502.792 922.135 501.249 921.017 501.249H919.087V503.821H918.362V497.863H921.146C922.304 497.863 923.035 498.377 923.035 499.535C923.035 500.563 922.433 501.035 921.749 501.121C922.778 501.206 922.731 502.792 923.293 503.821ZM921.105 500.649C922.006 500.649 922.304 500.22 922.304 499.535C922.304 498.849 922.006 498.42 921.105 498.42H919.087V500.606H921.105V500.649Z" fill="black"/>
<path d="M928.521 498.506H926.422V503.863H925.69V498.506H923.591V497.863H928.562V498.506H928.521Z" fill="black"/>
<path d="M933.709 497.777C935.422 497.777 936.54 499.02 936.54 500.82C936.54 502.62 935.382 503.906 933.709 503.906C932.036 503.906 930.878 502.62 930.878 500.82C930.837 499.02 931.995 497.777 933.709 497.777ZM933.709 498.377C932.422 498.377 931.609 499.406 931.609 500.82C931.609 502.234 932.422 503.306 933.709 503.306C934.996 503.306 935.808 502.278 935.808 500.82C935.808 499.449 934.996 498.377 933.709 498.377Z" fill="black"/>
<path d="M942.71 497.863V503.821H941.471L938.423 498.335V503.821H937.698V497.863H938.938L941.985 503.349V497.863H942.71Z" fill="black"/>
<path d="M947.044 498.506V500.477H950.302V501.121H947.044V503.863H946.312V497.863H950.471V498.506H947.044Z" fill="black"/>
<path d="M952.144 497.863V503.821H951.46V497.863H952.144Z" fill="black"/>
<path d="M958.53 503.821H957.677C957.243 502.792 957.372 501.249 956.261 501.249H954.331V503.821H953.6V497.863H956.39C957.548 497.863 958.273 498.377 958.273 499.535C958.273 500.563 957.677 501.035 956.986 501.121C958.015 501.206 957.975 502.792 958.53 503.821ZM956.342 500.649C957.243 500.649 957.548 500.22 957.548 499.535C957.548 498.849 957.243 498.42 956.342 498.42H954.331V500.606H956.342V500.649Z" fill="black"/>
<path d="M960.291 498.506V500.477H963.549V501.078H960.291V503.221H963.766V503.863H959.607V497.863H963.766V498.506H960.291Z" fill="black"/>
<path d="M969.339 496.621V497.05C968.181 497.392 967.233 499.235 967.233 500.821C967.233 502.407 968.181 504.336 969.339 504.679V505.107C967.836 504.765 966.678 502.836 966.678 500.821C966.678 498.764 967.836 496.964 969.339 496.621Z" fill="black"/>
<path d="M973.884 503.221V503.863H970.023V497.863H970.748V503.221H973.884Z" fill="black"/>
<path d="M973.965 504.72C975.123 504.377 976.071 502.449 976.071 500.863C976.071 499.277 975.123 497.434 973.965 497.091V496.662C975.468 497.005 976.626 498.848 976.626 500.863C976.626 502.877 975.468 504.806 973.965 505.149V504.72Z" fill="black"/>
<path d="M0 300.488H1024" stroke="black" stroke-miterlimit="10"/>
<path d="M0 0.677734H1024" stroke="black" stroke-miterlimit="10"/>
<path d="M0 600.875H1024" stroke="black" stroke-miterlimit="10"/>
<path d="M0 1043.66H1024" stroke="black" stroke-miterlimit="10"/>
<path d="M170.667 0.677734V600.538" stroke="black" stroke-miterlimit="10"/>
<path d="M341.333 0.677734V600.538" stroke="black" stroke-miterlimit="10"/>
<path d="M512 0.677734V600.258" stroke="black" stroke-miterlimit="10"/>
<path d="M682.68 0.677734V600.258" stroke="black" stroke-miterlimit="10"/>
<path d="M853.32 0.677734V600.258" stroke="black" stroke-miterlimit="10"/>
<path d="M1024 1043.32V601.215L6.10352e-05 601.215V1043.32H1024Z" fill="#E8B0F5"/>
<path d="M67.4885 655.387H29.8994V660.181H45.9072V700.739H51.4159V660.181H67.4885V655.387Z" fill="black"/>
<path d="M105.567 655.387V674.953H79.3193V655.387H73.8105V700.739H79.3193V679.744H105.567V700.739H111.075V655.387H105.567Z" fill="black"/>
<path d="M153.981 660.181V655.387H122.29V700.739H153.981V695.946H127.799V679.683H152.491V675.083H127.799V660.181H153.981Z" fill="black"/>
<path d="M178.935 655.387V700.739H184.184V655.387H178.935Z" fill="black"/>
<path d="M227.988 655.387V697.11L204.916 655.387H195.39V700.739H200.898V659.014L223.97 700.739H233.497V655.387H227.988Z" fill="black"/>
<path d="M277.484 655.387H239.895V660.181H255.903V700.739H261.411V660.181H277.484V655.387Z" fill="black"/>
<path d="M315.497 660.181V655.387H283.806V700.739H315.497V695.946H289.314V679.683H314.006V675.083H289.314V660.181H315.497Z" fill="black"/>
<path d="M350.099 680.137C355.414 679.426 359.821 675.989 359.821 668.085C359.821 659.339 354.312 655.387 345.628 655.387H324.564V700.611H330.009V681.24H344.72C353.275 681.24 352.238 692.967 355.479 700.739H361.83C357.553 692.899 357.747 680.787 350.099 680.137ZM330.009 676.702V659.987H345.174C351.979 659.987 354.377 663.161 354.377 668.344C354.377 673.527 351.979 676.702 345.174 676.702H330.009Z" fill="black"/>
<path d="M402.226 655.387V697.11L379.154 655.387H369.627V700.739H375.136V659.014L398.208 700.739H407.734V655.387H402.226Z" fill="black"/>
<path d="M452.11 700.739H457.814L439.861 655.387H431.761L413.873 700.739H419.512L424.891 687.131H446.731L452.11 700.739ZM426.77 682.337L435.843 659.533L444.852 682.337H426.77Z" fill="black"/>
<path d="M491.847 655.387H454.258V660.181H470.266V700.739H475.775V660.181H491.847V655.387Z" fill="black"/>
<path d="M498.168 655.387V700.739H503.417V655.387H498.168Z" fill="black"/>
<path d="M511.967 677.936C511.967 691.734 520.651 701.45 533.548 701.45C546.445 701.45 555.129 691.734 555.129 677.936C555.129 664.327 546.445 654.738 533.548 654.738C520.586 654.738 511.967 664.327 511.967 677.936ZM549.62 678.064C549.62 688.884 543.399 696.785 533.548 696.785C523.762 696.785 517.476 688.884 517.476 678.064C517.476 667.307 523.762 659.403 533.548 659.403C543.399 659.403 549.62 667.307 549.62 678.064Z" fill="black"/>
<path d="M596.335 655.387V697.11L573.263 655.387H563.736V700.739H569.245V659.014L592.317 700.739H601.844V655.387H596.335Z" fill="black"/>
<path d="M646.219 700.739H651.922L633.971 655.387H625.869L607.982 700.739H613.621L619 687.131H640.841L646.219 700.739ZM620.879 682.337L629.952 659.533L638.96 682.337H620.879Z" fill="black"/>
<path d="M663.548 695.946V655.387H658.039V700.739H687.205V695.946H663.548Z" fill="black"/>
<path d="M31.8438 827.746C31.8438 840.122 40.0745 846.337 50.8327 846.337C60.8133 846.337 68.2665 841.158 68.2665 833.379C68.2665 824.374 58.6098 821.781 51.1568 820.034C43.7038 818.288 38.7135 817.055 38.7135 812.262C38.7135 808.179 42.278 804.097 49.731 804.097C57.6376 804.097 61.0725 808.437 61.0725 816.209H66.5813C66.5813 806.622 60.8781 799.561 49.4718 799.561C38.6487 799.561 33.1399 805.972 33.1399 812.587C33.1399 820.942 41.8891 823.21 49.3422 824.956C57.8321 827.035 62.7576 828.328 62.7576 833.447C62.7576 838.951 56.9896 841.801 50.9623 841.801C44.2222 841.801 37.3525 838.172 37.3525 827.746H31.8438Z" fill="black"/>
<path d="M107.994 800.271H70.4053V805.065H86.4127V845.627H91.9215V805.065H107.994V800.271Z" fill="black"/>
<path d="M113.861 829.493C113.861 839.73 122.287 846.338 132.397 846.338C142.378 846.338 150.414 839.73 150.414 829.493V800.271H144.905V829.296C144.905 836.879 139.461 841.74 132.397 841.74C125.333 841.74 119.564 836.879 119.37 829.296V800.271H113.861V829.493Z" fill="black"/>
<path d="M161.214 800.271V845.627H178.323C193.294 845.627 198.803 835.586 198.803 823.21C198.803 810.705 193.229 800.271 178.194 800.271H161.214ZM176.055 840.894H166.723V805.004H175.99C190.248 805.004 193.359 813.23 193.359 823.21C193.359 832.993 190.248 840.894 176.055 840.894Z" fill="black"/>
<path d="M207.605 800.271V845.627H212.855V800.271H207.605Z" fill="black"/>
<path d="M221.402 822.824C221.402 836.622 230.087 846.338 242.984 846.338C255.881 846.338 264.565 836.622 264.565 822.824C264.565 809.216 255.881 799.629 242.984 799.629C230.022 799.629 221.402 809.216 221.402 822.824ZM259.057 822.953C259.057 833.772 252.835 841.673 242.984 841.673C233.198 841.673 226.911 833.772 226.911 822.953C226.911 812.195 233.198 804.294 242.984 804.294C252.835 804.294 259.057 812.195 259.057 822.953Z" fill="black"/>
<path d="M141.305 743.055L141.11 742.858C142.018 745.235 142.472 747.787 142.472 750.509C142.472 753.617 141.867 756.555 140.657 759.317C139.49 762.08 137.87 764.504 135.796 766.575C133.766 768.606 131.367 770.225 128.602 771.436C125.837 772.601 122.899 773.183 119.789 773.183C116.677 773.183 113.739 772.601 110.974 771.436C108.209 770.225 105.79 768.606 103.716 766.575C101.685 764.504 100.065 762.08 98.8555 759.317C97.6886 756.555 97.1055 753.617 97.1055 750.509C97.1055 747.395 97.6886 744.463 98.8555 741.694C100.065 738.932 101.685 736.535 103.716 734.504C105.79 732.432 108.209 730.814 110.974 729.643C113.739 728.437 116.677 727.828 119.789 727.828C121.085 727.828 122.359 727.936 123.612 728.153C124.865 728.37 126.075 728.674 127.242 729.06L133.982 727.828V730.746L141.305 727.828V743.055ZM134.824 737.55C133.312 735.736 131.498 734.246 129.38 733.075C127.263 731.911 124.973 731.159 122.51 730.814C123.072 731.2 123.698 731.721 124.39 732.364C125.081 732.974 125.773 733.725 126.464 734.632C127.155 735.499 127.825 736.535 128.473 737.74C129.121 738.911 129.682 740.245 130.158 741.762C130.979 741.328 131.649 740.895 132.167 740.462C132.729 739.988 133.183 739.582 133.528 739.236C133.96 738.803 134.305 738.39 134.565 738.004L134.824 737.55ZM116.937 730.875C114.431 731.22 112.098 731.999 109.937 733.211C107.82 734.416 106.006 735.953 104.494 737.808L104.688 738.194C104.947 738.586 105.293 738.993 105.725 739.426C106.071 739.771 106.524 740.184 107.086 740.658C107.648 741.091 108.361 741.525 109.225 741.951C109.7 740.401 110.24 739.04 110.845 737.875C111.493 736.664 112.163 735.607 112.854 734.7C113.588 733.793 114.301 733.035 114.992 732.432C115.727 731.782 116.375 731.268 116.937 730.875ZM118.816 732.107C118.341 732.364 117.736 732.777 117.002 733.339C116.267 733.854 115.511 734.544 114.734 735.411C113.955 736.23 113.178 737.246 112.4 738.458C111.666 739.622 111.039 740.983 110.521 742.54C111.601 742.967 112.833 743.339 114.215 743.637C115.64 743.901 117.283 744.05 119.14 744.091C119.097 742.06 119.054 740.076 119.01 738.133C118.968 736.142 118.903 734.138 118.816 732.107ZM120.437 744.091C122.251 744.009 123.85 743.813 125.232 743.508C126.615 743.211 127.825 742.818 128.862 742.344C128.343 740.834 127.716 739.514 126.982 738.39C126.291 737.225 125.557 736.251 124.779 735.479C124.044 734.653 123.31 733.982 122.575 733.468C121.884 732.906 121.279 732.493 120.76 732.236L120.437 744.091ZM135.213 743.055V748.302L138.972 745.323C138.67 744.246 138.281 743.211 137.805 742.215C137.373 741.179 136.855 740.225 136.25 739.365C136.034 739.622 135.494 740.164 134.63 740.983C133.766 741.762 132.404 742.513 130.547 743.251C130.806 744.375 131 745.56 131.13 746.812L135.213 743.055ZM103.132 739.69C102.139 741.2 101.361 742.838 100.799 744.612C100.281 746.339 99.9784 748.173 99.8924 750.116C100.454 750.164 101.383 750.225 102.679 750.313C103.975 750.401 105.768 750.482 108.058 750.57V750.38C108.058 749.08 108.123 747.848 108.252 746.684C108.425 745.519 108.619 744.436 108.835 743.447C107.064 742.757 105.746 742.039 104.882 741.308C104.018 740.57 103.435 740.035 103.132 739.69ZM120.177 750.699H120.307C120.393 750.699 120.48 750.699 120.566 750.699H121.02C121.063 750.699 121.106 750.699 121.149 750.699H121.214C121.301 750.699 121.365 750.699 121.409 750.699H121.668C121.711 750.699 121.755 750.699 121.797 750.699H123.742C123.785 750.699 123.828 750.699 123.872 750.699C124.995 750.699 126.053 750.678 127.047 750.638L130.028 747.848C129.899 746.467 129.661 745.106 129.315 743.766C128.192 744.158 126.874 744.483 125.362 744.741C123.893 744.957 122.229 745.106 120.372 745.194L120.177 750.699ZM119.14 745.194C117.239 745.154 115.533 745.018 114.02 744.808C112.551 744.544 111.255 744.246 110.132 743.901C109.873 744.849 109.657 745.865 109.484 746.941C109.354 747.977 109.289 749.128 109.289 750.38V750.57C110.629 750.617 112.119 750.658 113.761 750.699C115.403 750.699 117.218 750.699 119.205 750.699V750.638C119.205 750.59 119.205 750.55 119.205 750.509V750.441C119.205 750.353 119.205 750.272 119.205 750.184V750.116C119.205 750.076 119.205 750.055 119.205 750.055V749.927C119.205 749.927 119.205 749.9 119.205 749.859V749.791C119.205 749.751 119.205 749.71 119.205 749.663V749.602C119.205 749.554 119.205 749.534 119.205 749.534V749.473C119.205 749.385 119.205 749.297 119.205 749.209V748.302C119.205 748.302 119.205 748.282 119.205 748.241V747.916C119.205 747.009 119.184 746.102 119.14 745.194ZM115.382 752.256L111.364 757.828C112.4 757.523 113.567 757.286 114.863 757.117C116.159 756.941 117.585 756.833 119.14 756.792C119.14 755.925 119.14 755.066 119.14 754.199C119.184 753.339 119.205 752.472 119.205 751.606C118.471 751.565 117.174 751.545 115.317 751.545C113.502 751.545 111.515 751.606 109.354 751.734C109.398 752.432 109.441 753.095 109.484 753.745C109.57 754.348 109.678 754.957 109.808 755.56L115.382 752.256ZM120.372 756.792C122.186 756.833 123.785 756.961 125.167 757.178C126.594 757.395 127.868 757.679 128.991 758.024C129.294 757.117 129.531 756.162 129.704 755.174C129.877 754.138 130.007 753.034 130.093 751.87C128.322 751.782 126.572 751.714 124.844 751.674C123.159 751.633 121.625 751.606 120.242 751.606L120.372 756.792ZM103.586 761.971C104.018 761.545 104.666 761.003 105.53 760.353C106.438 759.71 107.648 759.08 109.16 758.478C108.857 757.483 108.619 756.447 108.447 755.363C108.274 754.24 108.166 753.055 108.123 751.802C106.74 751.89 105.358 752.019 103.975 752.188C102.593 752.364 101.296 752.601 100.087 752.906C100.475 756.271 101.642 759.297 103.586 761.971ZM135.926 762.107C138.086 759.168 139.318 755.864 139.62 752.188C138.756 752.147 137.589 752.107 136.12 752.06C134.651 752.019 133.052 751.951 131.324 751.87C131.238 753.122 131.108 754.287 130.935 755.363C130.763 756.447 130.547 757.483 130.287 758.478C131.93 759.08 133.183 759.751 134.047 760.482C134.954 761.172 135.58 761.714 135.926 762.107ZM119.14 757.957C117.412 758.004 115.878 758.153 114.539 758.41C113.2 758.667 112.011 759.013 110.974 759.446C111.493 760.746 112.098 761.91 112.789 762.946C113.523 763.942 114.236 764.822 114.928 765.6C115.662 766.338 116.375 766.961 117.067 767.482C117.757 767.956 118.341 768.342 118.816 768.647C118.903 766.833 118.968 765.065 119.01 763.332C119.054 761.565 119.097 759.771 119.14 757.957ZM120.76 768.586C121.279 768.281 121.862 767.868 122.51 767.354C123.159 766.833 123.828 766.21 124.519 765.472C125.254 764.74 125.967 763.874 126.658 762.879C127.349 761.843 127.954 760.678 128.473 759.385C127.479 758.992 126.313 758.667 124.973 758.41C123.634 758.153 122.122 758.004 120.437 757.957L120.76 768.586ZM104.882 763.657C106.481 765.472 108.339 766.941 110.456 768.065C112.616 769.189 114.928 769.92 117.39 770.265C116.872 769.879 116.267 769.405 115.576 768.843C114.885 768.234 114.171 767.523 113.437 766.704C112.746 765.837 112.076 764.869 111.428 763.786C110.78 762.669 110.197 761.389 109.678 759.967C108.252 760.658 107.15 761.369 106.373 762.107C105.639 762.797 105.142 763.312 104.882 763.657ZM121.992 770.265C124.498 769.967 126.81 769.277 128.927 768.193C131.086 767.07 132.966 765.6 134.565 763.786C134.305 763.359 133.96 762.926 133.528 762.493C133.139 762.147 132.642 761.761 132.037 761.328C131.433 760.854 130.676 760.401 129.769 759.967C129.25 761.389 128.646 762.669 127.954 763.786C127.306 764.91 126.615 765.905 125.88 766.772C125.189 767.591 124.498 768.302 123.807 768.904C123.115 769.466 122.51 769.92 121.992 770.265Z" fill="black"/>
<path d="M167.212 727.828V773.183H172.461V727.828H167.212Z" fill="black"/>
<path d="M216.266 727.828V769.554L193.194 727.828H183.667V773.183H189.176V731.457L212.248 773.183H221.774V727.828H216.266Z" fill="black"/>
<path d="M233.033 727.828V773.183H250.143C265.114 773.183 270.623 763.143 270.623 750.766C270.623 738.261 265.049 727.828 250.013 727.828H233.033ZM247.874 768.451H238.542V732.561H247.809C262.068 732.561 265.178 740.787 265.178 750.766C265.178 760.55 262.068 768.451 247.874 768.451Z" fill="black"/>
<path d="M311.116 732.622V727.828H279.425V773.183H311.116V768.39H284.934V752.127H309.625V747.523H284.934V732.622H311.116Z" fill="black"/>
<path d="M341.505 727.828H320.184V773.183H325.627V754.07H342.219C348.764 754.07 354.532 748.884 354.532 740.462C354.532 732.757 348.57 727.828 341.505 727.828ZM340.598 749.663H325.627V732.236H340.339C345.524 732.236 349.023 735.215 349.023 740.462C349.023 746.359 345.653 749.663 340.598 749.663Z" fill="black"/>
<path d="M393.583 732.622V727.828H361.891V773.183H393.583V768.39H367.399V752.127H392.092V747.523H367.399V732.622H393.583Z" fill="black"/>
<path d="M435.249 727.828V769.554L412.177 727.828H402.65V773.183H408.159V731.457L431.231 773.183H440.758V727.828H435.249Z" fill="black"/>
<path d="M452.016 727.828V773.183H469.125C484.096 773.183 489.604 763.143 489.604 750.766C489.604 738.261 484.031 727.828 468.996 727.828H452.016ZM466.857 768.451H457.524V732.561H466.792C481.05 732.561 484.161 740.787 484.161 750.766C484.161 760.55 481.05 768.451 466.857 768.451Z" fill="black"/>
<path d="M530.099 732.622V727.828H498.408V773.183H530.099V768.39H503.917V752.127H528.609V747.523H503.917V732.622H530.099Z" fill="black"/>
<path d="M571.765 727.828V769.554L548.693 727.828H539.166V773.183H544.675V731.457L567.747 773.183H577.274V727.828H571.765Z" fill="black"/>
<path d="M621.26 727.828H583.671V732.622H599.679V773.183H605.188V732.622H621.26V727.828Z" fill="black"/>
<path d="M672.661 773.183H678.366L660.413 727.828H652.311L634.424 773.183H640.063L645.441 759.575H667.282L672.661 773.183ZM647.321 754.781L656.394 731.978L665.403 754.781H647.321Z" fill="black"/>
<path d="M717.077 727.828V769.554L694.004 727.828H684.481V773.183H689.987V731.457L713.061 773.183H722.59V727.828H717.077Z" fill="black"/>
<path d="M733.847 727.828V773.183H739.095V727.828H733.847Z" fill="black"/>
<path d="M798.131 727.828H788.541L774.15 770.204L759.955 727.828H750.304V773.183H755.742V731.525L769.68 773.183H778.62L792.686 731.457V773.183H798.131V727.828Z" fill="black"/>
<path d="M842.531 773.183H848.234L830.28 727.828H822.18L804.294 773.183H809.935L815.313 759.575H837.154L842.531 773.183ZM817.189 754.781L826.264 731.978L835.271 754.781H817.189Z" fill="black"/>
<path d="M882.265 727.828H844.678V732.622H860.688V773.183H866.194V732.622H882.265V727.828Z" fill="black"/>
<path d="M888.591 727.828V773.183H893.839V727.828H888.591Z" fill="black"/>
<path d="M902.387 750.379C902.387 764.177 911.069 773.893 923.971 773.893C936.865 773.893 945.548 764.177 945.548 750.379C945.548 736.77 936.865 727.184 923.971 727.184C911.008 727.184 902.387 736.77 902.387 750.379ZM940.042 750.508C940.042 761.327 933.818 769.228 923.971 769.228C914.184 769.228 907.899 761.327 907.899 750.508C907.899 739.749 914.184 731.848 923.971 731.848C933.818 731.848 940.042 739.749 940.042 750.508Z" fill="black"/>
<path d="M986.758 727.828V769.554L963.684 727.828H954.155V773.183H959.668V731.457L982.735 773.183H992.264V727.828H986.758Z" fill="black"/>
<path d="M34.3066 974.379C34.3066 984.616 42.7318 991.224 52.842 991.224C62.8225 991.224 70.859 984.616 70.859 974.379V945.158H65.3501V974.183C65.3501 981.766 59.9062 986.627 52.842 986.627C45.7778 986.627 40.0098 981.766 39.8154 974.183V945.158H34.3066V974.379Z" fill="black"/>
<path d="M114.257 945.158V986.884L91.1851 945.158H81.6582V990.513H87.1669V948.787L110.239 990.513H119.766V945.158H114.257Z" fill="black"/>
<path d="M163.753 945.158H126.164V949.952H142.172V990.513H147.68V949.952H163.753V945.158Z" fill="black"/>
<path d="M198.382 990.513H204.085L186.133 945.158H178.032L160.145 990.513H165.783L171.162 976.905H193.003L198.382 990.513ZM173.041 972.111L182.114 949.308L191.123 972.111H173.041Z" fill="black"/>
<path d="M258.029 945.158H248.437L234.049 987.534L219.856 945.158H210.199V990.513H215.644V948.855L229.577 990.513H238.521L252.584 948.787V990.513H258.029V945.158Z" fill="black"/>
<path d="M301.004 949.952V945.158H269.312V990.513H301.004V985.72H274.821V969.457H299.513V964.853H274.821V949.952H301.004Z" fill="black"/>
<path d="M310.071 945.158V990.513H327.181C342.151 990.513 347.66 980.473 347.66 968.096C347.66 955.591 342.087 945.158 327.051 945.158H310.071ZM324.913 985.781H315.58V949.891H324.847C339.106 949.891 342.216 958.117 342.216 968.096C342.216 977.88 339.106 985.781 324.913 985.781Z" fill="black"/>
<path d="M372.349 945.158V990.513H377.598V945.158H372.349Z" fill="black"/>
<path d="M388.804 945.158V990.513H405.914C420.884 990.513 426.393 980.473 426.393 968.096C426.393 955.591 420.819 945.158 405.784 945.158H388.804ZM403.645 985.781H394.312V949.891H403.58C417.838 949.891 420.949 958.117 420.949 968.096C420.949 977.88 417.838 985.781 403.645 985.781Z" fill="black"/>
<path d="M466.887 949.952V945.158H435.195V990.513H466.887V985.72H440.704V969.457H465.397V964.853H440.704V949.952H466.887Z" fill="black"/>
<path d="M509.071 990.513H514.775L496.822 945.158H488.721L470.834 990.513H476.472L481.851 976.905H503.692L509.071 990.513ZM483.731 972.111L492.804 949.308L501.813 972.111H483.731Z" fill="black"/>
<path d="M517.277 972.633C517.277 985.009 525.508 991.224 536.267 991.224C546.247 991.224 553.7 986.045 553.7 978.266C553.7 969.261 544.044 966.668 536.59 964.921C529.137 963.174 524.147 961.942 524.147 957.149C524.147 953.066 527.712 948.984 535.165 948.984C543.071 948.984 546.506 953.323 546.506 961.096H552.015C552.015 951.509 546.312 944.447 534.905 944.447C524.082 944.447 518.574 950.859 518.574 957.474C518.574 965.828 527.323 968.096 534.776 969.843C543.266 971.922 548.191 973.215 548.191 978.333C548.191 983.838 542.423 986.688 536.396 986.688C529.656 986.688 522.786 983.059 522.786 972.633H517.277Z" fill="black"/>
<path d="M585.63 970.425H611.813C611.748 980.08 605.461 986.688 597.425 986.688C588.157 986.688 580.64 979.112 580.64 968.029C580.64 956.885 587.703 948.984 596.841 948.984C605.266 948.984 610.776 954.298 611.488 962.071H616.932C616.284 951.766 608.507 944.447 597.166 944.447C584.787 944.447 575.131 954.298 575.131 968.096C575.131 981.57 584.528 991.224 596.064 991.224C603.906 991.224 610.322 985.781 612.72 977.555L614.21 990.513H616.932V966.025H585.63V970.425Z" fill="black"/>
<path d="M632.156 985.72V945.158H626.647V990.513H655.811V985.72H632.156Z" fill="black"/>
<path d="M656.584 967.711C656.584 981.509 665.268 991.225 678.162 991.225C691.064 991.225 699.746 981.509 699.746 967.711C699.746 954.102 691.064 944.516 678.162 944.516C665.203 944.516 656.584 954.102 656.584 967.711ZM694.24 967.84C694.24 978.659 688.016 986.56 678.162 986.56C668.379 986.56 662.093 978.659 662.093 967.84C662.093 957.082 668.379 949.18 678.162 949.18C688.016 949.18 694.24 957.082 694.24 967.84Z" fill="black"/>
<path d="M736.413 966.086C740.043 964.339 742.251 961.163 742.251 957.081C742.251 949.952 737.517 945.158 729.742 945.158H708.354V990.513H731.164C739.4 990.513 744.452 985.266 744.452 977.487C744.452 971.725 741.343 967.446 736.413 966.086ZM713.861 949.633H727.927C733.826 949.633 736.738 952.809 736.738 957.535C736.738 961.746 733.372 964.535 728.381 964.535H713.861V949.633ZM729.999 986.045H713.861V968.746H730.975C735.769 968.746 738.946 972.24 738.946 977.297C738.946 982.544 736.027 986.045 729.999 986.045Z" fill="black"/>
<path d="M785.65 990.513H791.352L773.398 945.158H765.298L747.412 990.513H753.047L758.431 976.905H780.272L785.65 990.513ZM760.307 972.111L769.382 949.308L778.389 972.111H760.307Z" fill="black"/>
<path d="M802.973 985.72V945.158H797.467V990.513H826.629V985.72H802.973Z" fill="black"/>
<path d="M838.481 985.72V945.158H832.975V990.513H862.137V985.72H838.481Z" fill="black"/>
<path d="M899.752 945.158H893.081L878.236 965.632L863.268 945.158H856.591L875.384 970.236V990.513H881.026V970.236L899.752 945.158Z" fill="black"/>
<path d="M897.408 987.081C897.408 989.349 899.223 991.224 901.424 991.224C903.693 991.224 905.508 989.349 905.508 987.081C905.508 984.874 903.693 983.127 901.424 983.127C899.223 983.127 897.408 984.874 897.408 987.081Z" fill="black"/>
<path d="M534.113 872.715H496.523V877.508H512.532V918.07H518.04V877.508H534.113V872.715Z" fill="black"/>
<path d="M572.191 872.715V892.281H545.943V872.715H540.435V918.07H545.943V897.075H572.191V918.07H577.699V872.715H572.191Z" fill="black"/>
<path d="M622.031 918.07H627.735L609.782 872.715H601.681L583.794 918.07H589.432L594.811 904.461H616.652L622.031 918.07ZM596.691 899.668L605.764 876.865L614.773 899.668H596.691Z" fill="black"/>
<path d="M661.769 872.715H624.18V877.508H640.187V918.07H645.696V877.508H661.769V872.715Z" fill="black"/>
<path d="M681.888 872.715V918.07H687.136V872.715H681.888Z" fill="black"/>
<path d="M706.188 897.982H732.37C732.302 907.637 726.018 914.245 717.979 914.245C708.714 914.245 701.196 906.669 701.196 895.585C701.196 884.441 708.26 876.54 717.396 876.54C725.821 876.54 731.327 881.855 732.045 889.627H737.49C736.84 879.323 729.065 872.004 717.721 872.004C705.341 872.004 695.684 881.855 695.684 895.653C695.684 909.126 705.084 918.781 716.617 918.781C724.46 918.781 730.873 913.337 733.278 905.111L734.768 918.07H737.49V893.581H706.188V897.982Z" fill="black"/>
<path d="M779.798 872.715V914.441L756.731 872.715H747.202V918.07H752.708V876.344L775.782 918.07H785.311V872.715H779.798Z" fill="black"/>
<path d="M796.566 872.715V918.07H801.815V872.715H796.566Z" fill="black"/>
<path d="M845.755 872.715H808.161V877.508H824.171V918.07H829.677V877.508H845.755V872.715Z" fill="black"/>
<path d="M883.762 877.508V872.715H852.073V918.07H883.762V913.277H857.579V897.014H882.272V892.41H857.579V877.508H883.762Z" fill="black"/>
<path d="M889.41 900.189C889.41 912.566 897.639 918.781 908.4 918.781C918.376 918.781 925.833 913.601 925.833 905.822C925.833 896.818 916.175 894.224 908.725 892.478C901.269 890.731 896.277 889.499 896.277 884.705C896.277 880.623 899.847 876.54 907.296 876.54C915.2 876.54 918.64 880.88 918.64 888.652H924.146C924.146 879.066 918.444 872.004 907.039 872.004C896.217 872.004 890.704 878.415 890.704 885.03C890.704 893.385 899.454 895.653 906.91 897.4C915.396 899.478 920.32 900.771 920.32 905.89C920.32 911.394 914.556 914.245 908.529 914.245C901.79 914.245 894.916 910.616 894.916 900.189H889.41Z" fill="black"/>
<path d="M958.476 916.777C957.657 916.56 956.939 916.079 956.336 915.348C955.774 914.698 955.28 913.771 954.846 912.566C954.454 911.354 954.264 909.756 954.264 907.765C954.264 907.596 954.264 907.4 954.264 907.183C954.264 906.581 954.325 905.633 954.454 904.333C954.63 902.992 954.826 901.591 955.043 900.122C953.268 899.905 951.67 899.668 950.241 899.411C948.859 899.106 947.783 898.761 947.004 898.375C946.313 898.029 945.812 897.664 945.514 897.271C945.257 896.838 945.121 896.411 945.121 895.978C945.121 895.931 945.121 895.91 945.121 895.91C945.121 895.91 945.121 895.89 945.121 895.849C945.121 895.802 945.121 895.782 945.121 895.782V895.721V895.653C945.121 895.653 945.121 895.633 945.121 895.585V895.524C945.121 895.396 945.168 895.22 945.257 895.003C945.771 893.317 946.482 891.875 947.39 890.663C948.297 889.451 949.252 888.463 950.241 887.684C951.237 886.865 952.212 886.235 953.16 885.802C954.156 885.376 954.934 885.071 955.497 884.895C956.011 884.766 956.445 884.638 956.79 884.509C956.919 884.076 957.095 883.622 957.305 883.148C957.522 882.627 957.738 882.132 957.955 881.659C958.172 881.185 958.368 880.751 958.537 880.365C958.754 879.973 958.883 879.695 958.93 879.519L953.16 876.797C952.991 877.143 952.706 877.427 952.32 877.644C951.975 877.813 951.602 877.901 951.216 877.901C950.614 877.901 950.031 877.705 949.469 877.319C948.947 876.885 948.69 876.283 948.69 875.504C948.69 875.416 948.69 875.355 948.69 875.308C948.69 874.793 948.799 874.38 949.015 874.076C949.225 873.73 949.489 873.473 949.787 873.297C950.092 873.087 950.377 872.931 950.634 872.843C950.932 872.762 951.149 872.715 951.284 872.715H976.424C977.676 872.715 978.692 872.999 979.471 873.561C980.291 874.123 980.941 874.746 981.415 875.437C981.936 876.127 982.302 876.777 982.519 877.38C982.776 877.989 982.932 878.334 982.973 878.416C983.061 878.632 983.386 879.323 983.948 880.494C984.503 881.618 985.025 882.952 985.499 884.509C985.587 884.509 985.912 884.638 986.474 884.895C987.036 885.111 987.707 885.436 988.479 885.87C989.257 886.256 990.124 886.777 991.072 887.427C992.068 888.03 992.975 888.72 993.795 889.499C994.614 890.277 995.332 891.157 995.935 892.153C996.585 893.107 996.971 894.164 997.1 895.328C997.1 895.369 997.1 895.416 997.1 895.457C997.141 895.504 997.168 895.545 997.168 895.585C997.208 895.721 997.229 895.849 997.229 895.978C997.229 896.323 997.1 896.73 996.843 897.21C996.626 897.637 996.104 898.029 995.285 898.375C994.553 898.761 993.45 899.106 991.98 899.411C990.558 899.668 988.959 899.905 987.185 900.122C987.402 901.462 987.571 902.755 987.706 904.008C987.876 905.26 988.004 906.323 988.092 907.183C988.092 907.528 988.092 907.853 988.092 908.158C988.092 909.539 987.916 910.792 987.571 911.916C987.226 912.992 986.799 913.899 986.278 914.637C985.675 915.545 984.984 916.255 984.205 916.777C983.988 916.641 983.772 916.492 983.555 916.323C983.338 916.188 983.101 916.039 982.844 915.87C982.627 915.694 982.41 915.545 982.194 915.416L981.09 914.637C980.832 914.854 980.507 915.111 980.121 915.416C979.728 915.714 979.363 916.019 979.017 916.323C978.584 916.621 978.13 916.946 977.656 917.291V916.255L971.5 918.07L965.215 916.255V917.291C964.653 916.946 964.131 916.601 963.657 916.255C963.224 915.951 962.77 915.673 962.296 915.416C961.869 915.111 961.497 914.854 961.199 914.637L958.476 916.777ZM958.666 886.195C958.585 886.452 958.151 886.601 957.372 886.648C956.594 886.689 955.625 887.014 954.454 887.617C952.815 888.483 951.582 889.35 950.763 890.21C949.943 891.076 949.334 891.895 948.948 892.674C952.402 891.895 955.95 891.313 959.574 890.921C963.251 890.535 966.942 890.338 970.66 890.338C974.419 890.338 978.157 890.535 981.869 890.921L981.936 890.86V890.921C983.921 891.137 985.844 891.401 987.706 891.699C989.603 891.956 991.506 892.308 993.409 892.735C993.016 892.044 992.454 891.354 991.723 890.663C991.032 889.932 990.057 889.262 988.804 888.652C987.598 888.009 986.04 887.447 984.137 886.973C982.282 886.452 980.013 886.066 977.331 885.802C977.331 885.802 977.636 885.741 978.239 885.613C978.848 885.437 979.491 885.267 980.182 885.091C980.92 884.875 981.571 884.685 982.133 884.509C982.688 884.292 982.973 884.143 982.973 884.055C982.37 882.457 981.828 881.097 981.354 879.973C980.88 878.808 980.467 877.989 980.121 877.508C979.728 877.034 979.234 876.608 978.631 876.215C978.022 875.782 977.29 875.565 976.424 875.565H956.465L963.4 878.416C963.271 878.416 963.122 878.463 962.946 878.551C962.818 878.632 962.641 878.741 962.425 878.869C962.215 879.005 961.951 879.214 961.653 879.519C961.389 879.695 961.131 880.04 960.874 880.555C960.657 881.029 960.42 881.591 960.163 882.241C959.899 882.843 959.641 883.493 959.384 884.184C959.12 884.874 958.883 885.545 958.666 886.195ZM971.114 887.813L969.814 883.73H965.601L968.974 881.205L967.68 877.122L971.114 879.648L974.548 877.122L973.254 881.205L976.688 883.73H972.407L971.114 887.813ZM975.584 893.967C975.022 893.967 974.527 893.751 974.094 893.317C973.708 892.891 973.511 892.369 973.511 891.767C972.909 891.719 972.319 891.699 971.757 891.699H971.696H971.629C971.588 891.699 971.568 891.699 971.568 891.699H971.439C971.392 891.699 971.371 891.699 971.371 891.699H971.303C971.263 891.699 971.222 891.699 971.175 891.699H970.985H970.335C970.294 891.699 970.267 891.699 970.267 891.699H970.139L968.391 895.721L968.134 893.514C967.87 893.771 967.463 893.906 966.901 893.906C966.38 893.906 965.926 893.73 965.54 893.385C965.147 892.999 964.91 892.545 964.829 892.024C964.396 892.065 963.982 892.112 963.596 892.153C963.204 892.153 962.797 892.2 962.364 892.281L962.493 896.621L967.545 897.075C967.68 897.075 967.829 896.994 967.999 896.818C968.175 896.648 968.303 896.56 968.391 896.56C968.391 896.56 968.412 896.581 968.452 896.621C968.716 896.926 969.014 897.359 969.36 897.921C969.705 898.483 970.03 898.916 970.335 899.214C970.552 899.39 970.748 899.539 970.917 899.668C971.094 899.797 971.331 899.864 971.629 899.864C971.845 899.864 972.042 899.797 972.211 899.668C972.428 899.539 972.624 899.39 972.8 899.214C973.058 898.957 973.383 898.544 973.769 897.982C974.161 897.379 974.48 896.926 974.744 896.621C974.785 896.581 974.805 896.56 974.805 896.56C974.893 896.56 975.001 896.648 975.13 896.818C975.306 896.994 975.435 897.075 975.516 897.075L980.507 896.621L980.182 892.281C979.796 892.241 979.383 892.2 978.956 892.153C978.564 892.112 978.157 892.065 977.724 892.024C977.636 892.586 977.399 893.06 977.013 893.453C976.667 893.798 976.186 893.967 975.584 893.967ZM986.731 897.21C988.025 897.596 989.305 897.793 990.558 897.793C991.675 897.793 992.522 897.664 993.084 897.4C993.687 897.102 993.991 896.757 993.991 896.364C993.991 896.147 993.924 895.931 993.795 895.721C993.666 895.504 993.45 895.308 993.145 895.132C992.847 894.962 992.474 894.813 992.048 894.678C991.655 894.549 991.248 894.441 990.815 894.36C990.382 894.272 989.996 894.184 989.65 894.096C989.088 893.927 988.479 893.771 987.835 893.642C987.226 893.514 986.623 893.385 986.02 893.256C986.101 893.73 986.21 894.313 986.345 895.003C986.474 895.653 986.603 896.384 986.731 897.21ZM961.199 911.069C961.544 911.462 961.951 911.848 962.425 912.241C962.818 912.539 963.251 912.863 963.725 913.209C964.199 913.513 964.673 913.771 965.147 913.987C965.195 913.987 965.215 913.947 965.215 913.859C965.215 913.73 965.195 913.601 965.147 913.473C965.147 913.297 965.147 913.168 965.147 913.08C965.147 912.951 965.174 912.884 965.215 912.884C965.906 913.188 966.617 913.513 967.355 913.859C968.087 914.163 968.757 914.441 969.36 914.698C970.051 915.003 970.701 915.281 971.303 915.545C971.351 915.545 971.392 915.524 971.439 915.477H971.5C971.5 915.477 971.52 915.457 971.568 915.416H971.629C971.629 915.416 971.656 915.416 971.696 915.416L971.757 915.348C971.757 915.348 971.784 915.348 971.825 915.348L971.893 915.281C971.933 915.281 971.974 915.26 972.021 915.22C972.062 915.22 972.082 915.22 972.082 915.22L972.15 915.152C972.191 915.152 972.211 915.152 972.211 915.152L972.279 915.091C972.319 915.091 972.367 915.091 972.407 915.091L972.475 915.023H972.536C972.584 914.983 972.624 914.962 972.665 914.962H972.733C972.733 914.915 972.753 914.895 972.8 914.895L972.861 914.827C972.861 914.827 972.881 914.827 972.929 914.827H972.99C972.99 914.786 973.01 914.766 973.058 914.766H973.119C973.166 914.725 973.186 914.698 973.186 914.698H973.254C973.295 914.698 973.315 914.678 973.315 914.637H973.383C973.985 914.373 974.656 914.096 975.387 913.791C976.166 913.493 976.925 913.188 977.656 912.884C977.703 912.884 977.724 912.911 977.724 912.951C977.724 912.992 977.703 913.06 977.656 913.148C977.656 913.188 977.656 913.276 977.656 913.405C977.656 913.534 977.636 913.642 977.595 913.73C977.595 913.771 977.595 913.818 977.595 913.859C977.595 913.899 977.615 913.926 977.656 913.926C978.476 913.574 979.281 913.148 980.054 912.626C980.832 912.065 981.374 911.55 981.679 911.069L984.334 913.019C984.639 912.627 984.848 912.261 984.984 911.916C985.153 911.57 985.262 911.178 985.302 910.751C985.39 910.318 985.438 909.844 985.438 909.323C985.438 908.761 985.39 908.07 985.302 907.251C985.262 906.384 985.174 905.348 985.045 904.143C984.957 902.891 984.848 901.611 984.72 900.318C984.639 899.025 984.53 897.792 984.395 896.621C984.313 895.457 984.225 894.509 984.137 893.771L982.194 893.385L982.586 897.921C982.586 898.009 982.214 898.09 981.483 898.178C980.744 898.266 979.945 898.354 979.085 898.436C978.049 898.524 976.857 898.632 975.516 898.761C975.259 899.106 975.001 899.451 974.744 899.797C974.48 900.142 974.182 900.446 973.836 900.704C973.444 901.096 973.01 901.354 972.536 901.482L978.11 905.111H978.049C978.049 905.111 978.022 905.111 977.981 905.111H977.92C977.873 905.111 977.852 905.111 977.852 905.111C977.852 905.111 977.832 905.111 977.785 905.111H977.595C977.419 905.111 977.223 905.091 977.013 905.044C976.667 905.044 976.403 905.023 976.234 904.983C975.929 904.983 975.712 904.962 975.584 904.915C974.331 904.786 973.227 904.4 972.279 903.75C971.933 903.581 971.588 903.317 971.243 902.972C970.464 903.75 969.468 904.312 968.263 904.658C967.091 904.962 965.818 905.111 964.436 905.111L970.267 901.286C969.969 901.157 969.665 900.988 969.36 900.771C969.014 900.467 968.696 900.142 968.391 899.797C968.134 899.451 967.85 899.106 967.545 898.761C966.163 898.632 964.931 898.524 963.854 898.436C962.906 898.354 962.039 898.266 961.26 898.178C960.528 898.09 960.163 898.009 960.163 897.921L960.42 894.164L958.084 894.617C958.002 895.436 957.894 896.432 957.758 897.596C957.63 898.72 957.501 899.864 957.372 901.029C957.284 902.193 957.203 903.344 957.115 904.461C957.027 905.545 956.987 906.472 956.987 907.251C956.987 907.725 956.987 908.158 956.987 908.544C956.987 908.937 956.987 909.39 956.987 909.905C957.027 910.379 957.115 910.859 957.244 911.333C957.373 911.767 957.549 912.153 957.758 912.498C957.975 912.803 958.212 913.121 958.476 913.473L961.199 911.069ZM948.561 896.946C949.638 897.637 950.763 898.09 951.927 898.307C953.14 898.524 954.244 898.679 955.232 898.761C955.449 897.42 955.625 896.235 955.754 895.199C955.883 894.164 955.971 893.561 956.011 893.385C954.799 893.602 953.614 893.859 952.449 894.164C951.284 894.421 950.133 894.786 949.015 895.267C948.622 895.436 948.385 895.612 948.297 895.782C948.216 895.958 948.169 896.086 948.169 896.168C948.169 896.215 948.169 896.303 948.169 896.432C948.216 896.52 948.277 896.621 948.365 896.757C948.453 896.885 948.514 896.946 948.561 896.946ZM971.243 907.183C971.893 908.009 972.881 908.524 974.222 908.74C974.222 908.74 974.161 908.828 974.026 908.998C973.897 909.174 973.708 909.343 973.444 909.519C973.227 909.688 972.929 909.864 972.536 910.033C972.191 910.162 971.757 910.23 971.243 910.23C970.768 910.23 970.335 910.162 969.949 910.033C969.597 909.864 969.299 909.688 969.041 909.519C968.825 909.343 968.649 909.174 968.52 908.998C968.391 908.828 968.324 908.74 968.324 908.74C969.665 908.524 970.64 908.009 971.243 907.183Z" fill="black"/>
</g>
<defs>
<clipPath id="clip0_15_2292">
<rect width="1024" height="1044" fill="white"/>
</clipPath>
</defs>
</svg>
